<?xml version="1.0" encoding="iso-8859-1"?>
<!-- Generator: Adobe Illustrator 19.0.0, SVG Export Plug-In . SVG Version: 6.00 Build 0)  -->
<svg version="1.1" id="Layer_1" xmlns="http://www.w3.org/2000/svg" xmlns:xlink="http://www.w3.org/1999/xlink" x="0px" y="0px"
	 viewBox="0 0 512 512" style="enable-background:new 0 0 512 512;" xml:space="preserve">
<g>
	<g>
		<path d="M501.059,176.439c-4.49-17.353-21.83-29.918-39.75-28.698c-5.988,0.138-92.543,2.359-136.338,15.261
			c-21.074,6.209-55.648,37.856-61.609,43.414H246.7c-9.408-8.616-40.26-35.906-59.671-41.625
			c-43.797-12.903-130.35-15.123-136.338-15.261c-17.918-1.236-35.26,11.342-39.75,28.698C9.943,181.517,0,215.296,0,256.777
			c0,41.317,9.863,74.992,10.928,78.508c4.315,17.328,21.539,29.885,39.557,28.752c2.58,0.057,14.43,0.303,30.371,0.303
			c33.33,0,84.521-1.072,106.08-7.158c32.007-9.036,60.23-39.906,68.827-50.045h0.586c8.587,9.69,36.787,39.242,68.714,48.256
			c21.562,6.088,72.752,7.158,106.082,7.158c15.935,0,27.789-0.246,30.367-0.303c18.006,1.143,35.242-11.424,39.559-28.752
			C502.137,329.98,512,296.305,512,254.988C512,213.508,502.057,179.728,501.059,176.439z M182.375,341.027
			c-30.127,8.506-130.863,6.244-131.879,6.219c-0.275-0.01-0.545,0.002-0.818,0.021c-9.914,0.756-20.205-6.672-22.494-16.176
			c-0.041-0.17-0.09-0.344-0.141-0.512c-0.103-0.332-10.256-33.707-10.256-73.801c0-40.094,10.154-73.469,10.256-73.797
			c0.043-0.144,0.084-0.288,0.121-0.433c2.404-9.539,12.695-16.977,22.514-16.259c0.145,0.01,0.291,0.017,0.434,0.021
			c0.893,0.019,89.877,2.126,132.17,14.586c11.673,3.439,31.944,19.455,45.397,31.085c-3.636,2.919-6.43,6.823-8.007,11.301
			l-57.892-16.541c-4.449-1.271-9.1,1.306-10.375,5.764s1.307,9.104,5.764,10.377l58.754,16.787c0.769,0.22,1.543,0.324,2.305,0.325
			v8.392h-25.18c-4.635,0-8.393,3.758-8.393,8.393c0,4.635,3.758,8.393,8.393,8.393h25.18v8.428c-0.763,0-1.534,0.067-2.305,0.288
			l-58.754,16.787c-4.457,1.273-7.039,5.919-5.764,10.377c1.053,3.686,4.412,6.089,8.066,6.089c0.762,0,1.539-0.104,2.309-0.325
			l57.892-16.541c2.467,7.007,7.945,12.591,14.889,15.216C222.922,317.534,203.144,335.163,182.375,341.027z M276.983,281.96
			c0,4.705-3.709,8.39-8.443,8.39h-25.082c-4.734,0-8.443-3.685-8.443-8.39v-50.367c0-4.705,3.709-8.39,8.443-8.39h25.082
			c4.734,0,8.443,3.685,8.443,8.39V281.96z M484.957,328.785c-0.051,0.17-0.101,0.342-0.141,0.516
			c-2.289,9.504-12.584,16.94-22.494,16.176c-0.273-0.018-0.547-0.031-0.818-0.021c-1.019,0.022-101.742,2.289-131.879-6.219
			c-20.474-5.78-40.038-22.353-51.775-33.898c6.031-2.4,10.909-7.052,13.609-12.915l50.367,14.391
			c0.771,0.22,1.545,0.325,2.309,0.325c3.652,0,7.012-2.403,8.066-6.089c1.275-4.458-1.307-9.104-5.764-10.377l-52.666-15.047
			v-10.456h25.18c4.635,0,8.393-3.758,8.393-8.393c0-4.635-3.758-8.393-8.393-8.393h-25.18v-10.456l52.666-15.047
			c4.457-1.273,7.039-5.919,5.764-10.377c-1.272-4.457-5.914-7.042-10.375-5.764l-50.367,14.39
			c-1.842-4.001-4.698-7.434-8.247-9.979c13.424-11.688,34.508-28.511,46.505-32.046c42.27-12.454,131.277-14.567,132.17-14.586
			c0.144-0.003,0.289-0.01,0.432-0.021c9.791-0.736,20.115,6.719,22.516,16.259c0.037,0.142,0.078,0.289,0.121,0.429
			c0.102,0.332,10.256,33.707,10.256,73.801S485.059,328.457,484.957,328.785z"/>
	</g>
</g>
<g>
</g>
<g>
</g>
<g>
</g>
<g>
</g>
<g>
</g>
<g>
</g>
<g>
</g>
<g>
</g>
<g>
</g>
<g>
</g>
<g>
</g>
<g>
</g>
<g>
</g>
<g>
</g>
<g>
</g>
</svg>
