<?xml version="1.0" encoding="iso-8859-1"?>
<!-- Generator: Adobe Illustrator 17.1.0, SVG Export Plug-In . SVG Version: 6.00 Build 0)  -->
<!DOCTYPE svg PUBLIC "-//W3C//DTD SVG 1.1//EN" "http://www.w3.org/Graphics/SVG/1.1/DTD/svg11.dtd">
<svg version="1.1" id="Capa_1" xmlns="http://www.w3.org/2000/svg" xmlns:xlink="http://www.w3.org/1999/xlink" x="0px" y="0px"
	 viewBox="0 0 475.564 475.564" style="enable-background:new 0 0 475.564 475.564;" xml:space="preserve">
<path d="M358.361,91.201L354.02,35.17c-0.004-0.059-0.01-0.117-0.016-0.176C351.986,15.044,335.2,0,314.96,0H160.599
	c-20.24,0-37.025,15.044-39.044,34.994c-0.006,0.058-0.011,0.117-0.016,0.176l-4.341,56.031
	c-3.372,33.971,7.828,67.968,30.736,93.281c14.782,16.335,33.65,28.169,54.345,34.522l-7.265,212.297
	c-0.403,11.702,3.855,22.784,11.991,31.205s19.064,13.058,30.773,13.058s22.638-4.637,30.773-13.058s12.395-19.503,11.991-31.203
	l-7.263-212.235c25.351-7.754,47.621-23.765,63.185-45.569C353.488,149.651,361.262,120.427,358.361,91.201z M263.854,206.133
	c-0.529,0.125-1.033,0.307-1.511,0.536c-0.014,0.007-0.027,0.015-0.041,0.021c-0.206,0.101-0.407,0.209-0.602,0.327
	c-0.03,0.018-0.057,0.038-0.086,0.057c-0.177,0.111-0.351,0.227-0.518,0.352c-0.031,0.023-0.059,0.048-0.089,0.071
	c-0.163,0.126-0.323,0.257-0.475,0.396c-0.02,0.019-0.038,0.038-0.058,0.057c-0.16,0.149-0.314,0.304-0.46,0.466
	c-0.005,0.005-0.009,0.01-0.013,0.015c-1.246,1.391-1.981,3.242-1.912,5.255l7.465,218.13c0.262,7.6-2.504,14.797-7.788,20.266
	c-5.284,5.469-12.381,8.481-19.986,8.481s-14.702-3.012-19.986-8.481c-5.284-5.469-8.049-12.666-7.788-20.268l7.161-209.253
	c6.765,1.172,13.658,1.784,20.612,1.784c4.142,0,7.5-3.358,7.5-7.5s-3.358-7.5-7.5-7.5c-29.94,0-58.633-12.732-78.723-34.931
	s-29.903-52.017-26.924-81.808c0.005-0.056,0.01-0.111,0.015-0.167l4.34-56.02C137.765,24.203,148.116,15,160.599,15H314.96
	c12.483,0,22.834,9.203,24.112,21.422l4.34,56.02c0.004,0.056,0.009,0.111,0.015,0.167
	C348.627,144.606,314.422,193.394,263.854,206.133z M311.133,47.589H164.426c-4.142,0-7.5,3.358-7.5,7.5v46.536
	c0,12.181,2.724,23.733,7.569,34.103c0.137,0.366,0.297,0.719,0.486,1.055c13.102,27.02,40.809,45.696,72.799,45.696
	c4.142,0,7.5-3.358,7.5-7.5s-3.358-7.5-7.5-7.5c-22.349,0-42.121-11.201-54.032-28.273c9.051-2.946,16.132-10.301,18.659-19.531
	l70.746,0c2.53,9.243,9.626,16.604,18.695,19.542c-2.215,3.172-4.71,6.181-7.503,8.974c-2.929,2.929-2.929,7.678,0,10.607
	c2.929,2.929,7.678,2.929,10.606,0c15.271-15.271,23.682-35.575,23.682-57.172V55.089C318.633,50.947,315.275,47.589,311.133,47.589
	z M287.149,112.174c0-1.989-0.79-3.897-2.197-5.303c-1.406-1.406-3.314-2.197-5.303-2.197l-83.739,0c-4.142,0-7.5,3.358-7.5,7.5
	c0,6.915-5.252,12.621-11.975,13.352c-2.899-7.415-4.509-15.471-4.509-23.901V62.589h131.707v39.036
	c0,8.313-1.548,16.385-4.475,23.906C292.418,124.816,287.149,119.1,287.149,112.174z M245.279,414.922v17.714
	c0,4.142-3.358,7.5-7.5,7.5s-7.5-3.358-7.5-7.5v-17.714c0-4.142,3.358-7.5,7.5-7.5S245.279,410.78,245.279,414.922z"/>
<g>
</g>
<g>
</g>
<g>
</g>
<g>
</g>
<g>
</g>
<g>
</g>
<g>
</g>
<g>
</g>
<g>
</g>
<g>
</g>
<g>
</g>
<g>
</g>
<g>
</g>
<g>
</g>
<g>
</g>
</svg>
