<?xml version='1.0' encoding='iso-8859-1'?>
<!DOCTYPE svg PUBLIC '-//W3C//DTD SVG 1.1//EN' 'http://www.w3.org/Graphics/SVG/1.1/DTD/svg11.dtd'>
<svg version="1.1" xmlns="http://www.w3.org/2000/svg" viewBox="0 0 429 429" xmlns:xlink="http://www.w3.org/1999/xlink" enable-background="new 0 0 429 429">
  <g>
    <path d="m421.5,92.54h-158.422l-43.275-43.274c-1.406-1.407-3.314-2.197-5.303-2.197-1.989,0-3.897,0.79-5.303,2.197l-43.274,43.274h-158.423c-4.142,0-7.5,3.358-7.5,7.5v274.391c0,4.142 3.358,7.5 7.5,7.5h414c4.143,0 7.5-3.358 7.5-7.5v-274.391c0-4.142-3.357-7.5-7.5-7.5zm-34.106,31h-345.788l-16-16h377.787l-15.999,16zm-4.394,15v197.391h-337v-197.391h337zm-352-4.393v206.178l-16,16v-238.178l16,16zm10.606,216.784h345.787l16,16h-377.787l16-16zm356.394-10.607v-206.177l16-16v238.177l-16-16zm-183.5-275.148l27.364,27.364h-54.728l27.364-27.364z"/>
    <path d="m84.5,304.931h260c4.143,0 7.5-3.358 7.5-7.5v-120.391c0-4.142-3.357-7.5-7.5-7.5h-260c-4.142,0-7.5,3.358-7.5,7.5v120.391c0,4.142 3.358,7.5 7.5,7.5zm7.5-15v-19.211c7.854-1.426 15.866-2.16 23.9-2.16 23.326,0 46.255,6.141 66.31,17.76 1.171,0.678 2.468,1.01 3.758,1.01 1.817,0 3.621-0.66 5.035-1.939 24.385-22.068 55.946-34.221 88.868-34.221 19.77,0 39.422,4.461 57.13,12.924v25.837h-245.001zm245-105.391v63.128c-17.985-7.54-37.507-11.498-57.13-11.498-34.844,0-68.32,12.231-94.864,34.55-21.18-11.241-44.956-17.16-69.106-17.16-8.02,0-16.024,0.657-23.9,1.938v-70.958h245z"/>
    <path d="m159.5,247.54c15.164,0 27.5-12.336 27.5-27.5s-12.336-27.5-27.5-27.5-27.5,12.336-27.5,27.5 12.336,27.5 27.5,27.5zm0-40c6.893,0 12.5,5.607 12.5,12.5s-5.607,12.5-12.5,12.5-12.5-5.607-12.5-12.5 5.607-12.5 12.5-12.5z"/>
  </g>
</svg>
