<?xml version="1.0" encoding="iso-8859-1"?>
<!-- Generator: Adobe Illustrator 18.0.0, SVG Export Plug-In . SVG Version: 6.00 Build 0)  -->
<!DOCTYPE svg PUBLIC "-//W3C//DTD SVG 1.1//EN" "http://www.w3.org/Graphics/SVG/1.1/DTD/svg11.dtd">
<svg version="1.1" id="Capa_1" xmlns="http://www.w3.org/2000/svg" xmlns:xlink="http://www.w3.org/1999/xlink" x="0px" y="0px"
	 viewBox="0 0 480.986 480.986" style="enable-background:new 0 0 480.986 480.986;" xml:space="preserve">
<path d="M344.359,297.531c-2.271-53.64-4.844-114.436-3.703-151.411c2.015-64.78-12.557-109.742-20.384-133.898
	c-0.487-1.504-0.95-2.932-1.383-4.283l-2.541-7.935l-8.264,1.063c-0.27,0.035-27.456,3.476-67.592,3.476s-67.322-3.44-67.59-3.475
	L164.636,0l-2.539,7.939c-0.434,1.357-0.898,2.788-1.387,4.298c-7.826,24.154-22.394,69.115-20.38,133.881
	c1.142,36.984-1.432,97.796-3.703,151.449c-1.793,42.349-3.341,78.923-2.534,93.367c1.033,18.64,1.932,28.225,4.824,39.332
	c0.709,2.722,2.187,5.858,5.127,8.77v24.25l0.324,1.243c1.287,4.926,7.007,16.382,32.266,16.382c0.222,0,0.535,0.011,0.924,0.021
	c0.902,0.024,2.045,0.055,3.362,0.055c8.698,0,24.896-1.339,28.233-14.737l0.297-1.19v-23.801c2.559-2.388,4.288-5.326,5.16-8.823
	c2.849-11.427,6.152-34.516,7.089-44.774c0.757-8.305,12.666-154.258,13.361-167.249c0.063-1.148,0.128-2.627,0.205-4.395
	c0.454-10.373,1.396-31.854,5.228-53.683c3.832,21.829,4.773,43.309,5.227,53.683c0.077,1.768,0.143,3.247,0.205,4.383
	c0.688,12.852,12.603,158.913,13.361,167.262c0.937,10.263,4.242,33.354,7.091,44.771c0.871,3.497,2.601,6.437,5.158,8.825v23.801
	l0.297,1.19c3.337,13.398,19.536,14.737,28.233,14.737c1.316,0,2.461-0.03,3.362-0.055c0.389-0.01,0.702-0.021,0.924-0.021
	c25.263,0,30.98-11.458,32.266-16.384l0.324-1.242v-24.249c2.94-2.91,4.418-6.046,5.126-8.768
	c2.894-11.108,3.792-20.693,4.825-39.33C347.701,376.486,346.152,339.897,344.359,297.531z M240.493,24.544
	c28.651,0,50.614-1.662,61.857-2.741c1.33,4.128,2.808,8.813,4.332,14.022c-10.707,2.145-31.644,5.074-66.189,5.074
	c-34.565,0-55.506-2.933-66.189-5.071c1.524-5.211,3.004-9.896,4.333-14.025C189.879,22.882,211.842,24.544,240.493,24.544z
	 M189.45,460.16c-1.641,0.458-4.924,0.945-11.357,0.779c-0.614-0.017-1.109-0.028-1.459-0.028c-5.147,0-10.294-0.993-12.59-2.05
	v-11.1c5.786,0.953,10.89,1.042,12.561,1.042c0.29,0,0.7,0.013,1.208,0.026c1.077,0.028,2.492,0.065,4.117,0.065
	c2.671,0,5.167-0.122,7.521-0.342V460.16z M265.896,219.319c-0.06-1.091-0.121-2.497-0.195-4.178
	c-0.744-16.985-2.721-62.105-15.942-94.676l-9.266-22.828l-9.266,22.828c-13.221,32.571-15.198,77.69-15.942,94.676
	c-0.074,1.681-0.136,3.087-0.195,4.189c-0.585,10.935-12.176,154.085-13.309,166.514c-0.971,10.641-4.067,31.269-6.401,41.032
	c-0.974,0.559-4.386,2.019-13.45,2.019c-1.415,0-2.646-0.033-3.585-0.059c-0.731-0.02-1.322-0.033-1.74-0.033
	c-9.268,0-16.806-2.215-18.41-3.875c-2.398-9.328-3.188-18.052-4.133-35.105c-0.752-13.468,0.777-49.587,2.548-91.41
	c2.285-53.996,4.876-115.195,3.711-152.914c-1.147-36.901,3.425-67.094,8.87-90.307c11.943,2.487,34.508,5.707,71.303,5.707
	c36.796,0,59.359-3.22,71.303-5.707c5.445,23.213,10.018,53.405,8.87,90.309c-1.163,37.708,1.427,98.894,3.711,152.876
	c1.771,41.84,3.301,77.975,2.548,91.45c-0.945,17.049-1.734,25.773-4.133,35.102c-1.605,1.66-9.142,3.875-18.41,3.875
	c-0.418,0-1.009,0.014-1.74,0.033c-0.938,0.025-2.17,0.059-3.585,0.059c-9.061,0-12.475-1.46-13.448-2.018
	c-2.334-9.758-5.433-30.389-6.403-41.03C278.012,372.725,266.508,230.756,265.896,219.319z M304.352,460.911
	c-0.35,0-0.845,0.012-1.459,0.028c-6.431,0.171-9.717-0.32-11.357-0.779v-11.606c2.354,0.22,4.85,0.342,7.521,0.342
	c1.626,0,3.04-0.037,4.117-0.065c0.508-0.014,0.918-0.026,1.208-0.026c1.671,0,6.774-0.089,12.561-1.042v11.101
	C314.646,459.919,309.5,460.911,304.352,460.911z"/>
<g>
</g>
<g>
</g>
<g>
</g>
<g>
</g>
<g>
</g>
<g>
</g>
<g>
</g>
<g>
</g>
<g>
</g>
<g>
</g>
<g>
</g>
<g>
</g>
<g>
</g>
<g>
</g>
<g>
</g>
</svg>
