<?xml version="1.0" encoding="iso-8859-1"?>
<!-- Generator: Adobe Illustrator 19.0.0, SVG Export Plug-In . SVG Version: 6.00 Build 0)  -->
<svg version="1.1" id="Layer_1" xmlns="http://www.w3.org/2000/svg" xmlns:xlink="http://www.w3.org/1999/xlink" x="0px" y="0px"
	 viewBox="0 0 512 512" style="enable-background:new 0 0 512 512;" xml:space="preserve">
<g>
	<g>
		<path d="M256.001,0c-4.328,0-7.837,3.509-7.837,7.837V26.66c0,4.328,3.509,7.837,7.837,7.837c4.329,0,7.837-3.509,7.837-7.837
			V7.837C263.837,3.509,260.33,0,256.001,0z"/>
	</g>
</g>
<g>
	<g>
		<path d="M138.679,135.79H119.8c-4.328,0-7.837,3.509-7.837,7.837s3.509,7.837,7.837,7.837h18.879c4.328,0,7.837-3.509,7.837-7.837
			S143.007,135.79,138.679,135.79z"/>
	</g>
</g>
<g>
	<g>
		<path d="M392.2,135.79h-18.88c-4.329,0-7.837,3.509-7.837,7.837s3.509,7.837,7.837,7.837h18.88c4.328,0,7.837-3.509,7.837-7.837
			S396.528,135.79,392.2,135.79z"/>
	</g>
</g>
<g>
	<g>
		<path d="M357.858,42.077c-3.056-3.065-8.019-3.074-11.082-0.017l-13.35,13.309c-3.066,3.055-3.072,8.018-0.018,11.082
			c1.532,1.536,3.54,2.304,5.55,2.304c2.001,0,4.004-0.762,5.533-2.287l13.349-13.309C360.906,50.104,360.913,45.142,357.858,42.077
			z"/>
	</g>
</g>
<g>
	<g>
		<path d="M178.576,55.369l-13.35-13.31c-3.066-3.056-8.028-3.049-11.082,0.017c-3.056,3.065-3.049,8.027,0.017,11.082l13.35,13.31
			c1.53,1.524,3.532,2.287,5.533,2.287c2.009,0,4.019-0.768,5.549-2.304C181.649,63.387,181.64,58.424,178.576,55.369z"/>
	</g>
</g>
<g>
	<g>
		<path d="M256.001,237.043c-19.065,0-38.027,4.652-54.836,13.454c-3.834,2.007-5.314,6.744-3.307,10.578s6.743,5.315,10.578,3.307
			c14.575-7.632,31.023-11.665,47.566-11.665c56.594,0,102.637,45.894,102.637,102.305s-46.043,102.305-102.637,102.305
			c-56.595,0-102.637-45.894-102.637-102.305c-0.001-29.23,12.64-57.151,34.679-76.602c3.244-2.864,3.554-7.816,0.69-11.061
			c-2.863-3.244-7.816-3.555-11.061-0.69c-25.409,22.425-39.982,54.628-39.982,88.352c0,65.053,53.075,117.978,118.311,117.978
			S374.31,420.075,374.31,355.022S321.238,237.043,256.001,237.043z"/>
	</g>
</g>
<g>
	<g>
		<path d="M303.148,205.238V186.45c0-3.364-1.288-6.425-3.384-8.742l43.063-51.614c4.543-5.445,4.954-13.064,1.025-18.958
			L317.257,67.2c-2.974-4.458-7.957-7.118-13.332-7.118h-95.849c-5.379,0-10.364,2.663-13.334,7.123l-26.596,39.932
			c-3.927,5.896-3.514,13.515,1.027,18.958l43.063,51.614c-2.096,2.318-3.384,5.378-3.384,8.742v18.788
			c-63.844,20.025-110.28,79.597-110.28,149.784C98.573,441.58,169.195,512,256.001,512c32.475,0,63.654-9.78,90.166-28.283
			c3.549-2.477,4.418-7.362,1.941-10.912c-2.476-3.549-7.362-4.419-10.911-1.941c-23.869,16.659-51.946,25.463-81.197,25.463
			c-78.164,0-141.754-63.389-141.754-141.305s63.59-141.305,141.754-141.305s141.754,63.389,141.754,141.305
			c0,37.901-14.851,73.49-41.817,100.211c-3.074,3.046-3.097,8.008-0.05,11.082c3.048,3.074,8.008,3.096,11.082,0.05
			c29.958-29.688,46.457-69.23,46.457-111.344C413.428,284.835,366.993,225.263,303.148,205.238z M282.956,173.389h-5.425
			l2.737-8.237c1.366-4.107-0.858-8.543-4.966-9.908c-4.104-1.366-8.543,0.858-9.907,4.966l-4.379,13.178h-10.029l-16.306-49.085
			h1.429h39.78h1.429l-3.704,11.152c-1.366,4.107,0.859,8.543,4.966,9.908c0.82,0.273,1.652,0.401,2.471,0.401
			c3.283,0,6.344-2.081,7.435-5.369l5.346-16.092h30.073L282.956,173.389z M308.272,81.987l14.727,22.112l3.019,4.532h-33.439
			l-1.027-1.54L308.272,81.987z M293.591,75.755l-11.454,17.198l-11.454-17.198H293.591z M273.745,108.631h-35.491l17.745-26.644
			L273.745,108.631z M241.319,75.755l-11.454,17.198L218.41,75.755H241.319z M203.73,81.987l16.719,25.103l-1.026,1.54h-33.439
			L203.73,81.987z M188.092,124.304h30.073l16.306,49.085h-5.425L188.092,124.304z M287.475,201.198
			c-10.172-2.067-20.699-3.155-31.474-3.155c-10.776,0-21.301,1.088-31.474,3.155v-12.135h62.949V201.198z"/>
	</g>
</g>
<g>
</g>
<g>
</g>
<g>
</g>
<g>
</g>
<g>
</g>
<g>
</g>
<g>
</g>
<g>
</g>
<g>
</g>
<g>
</g>
<g>
</g>
<g>
</g>
<g>
</g>
<g>
</g>
<g>
</g>
</svg>
