<?xml version="1.0" encoding="iso-8859-1"?>
<!-- Generator: Adobe Illustrator 19.0.0, SVG Export Plug-In . SVG Version: 6.00 Build 0)  -->
<svg version="1.1" id="Layer_1" xmlns="http://www.w3.org/2000/svg" xmlns:xlink="http://www.w3.org/1999/xlink" x="0px" y="0px"
	 viewBox="0 0 512 512" style="enable-background:new 0 0 512 512;" xml:space="preserve">
<g>
	<g>
		<path d="M510.795,170.7c-35.632-62.358-119.85-131.368-129.453-139.125c-10.478-13.294-26.091-20.893-43.056-20.909v-0.002h-0.054
			h-18.88H192.647h-9.79h-9.089c-16.973,0-32.6,7.597-43.091,20.897C121.152,39.253,36.857,108.307,1.205,170.7
			c-1.81,3.166-1.565,7.104,0.623,10.021l54.857,73.143c2.911,3.882,8.346,4.815,12.386,2.122l49.786-33.19v226.485
			c0,2.586,1.096,5.051,3.013,6.785c1.922,1.732,4.487,2.568,7.056,2.311c44.52-4.535,86.036,1.455,123.408,17.806
			c38.295,16.753,70.786,25.152,97.141,25.152c14.799,0,27.663-2.648,38.533-7.953c3.141-1.532,5.134-4.722,5.134-8.216V222.796
			l49.786,33.19c4.04,2.69,9.473,1.76,12.386-2.122l54.857-73.143C512.359,177.804,512.605,173.867,510.795,170.7z M307.698,28.951
			C300.076,50.383,279.465,65.522,256,65.522s-44.075-15.139-51.698-36.571H307.698z M445.875,235.974l-56.804-37.868
			c-2.804-1.872-6.411-2.043-9.386-0.454c-2.973,1.591-4.828,4.69-4.828,8.061v273.391c-18.759,6.71-53.259,7.423-115.192-19.672
			c-31.643-13.844-65.947-20.809-102.312-20.809c-6.667,0-13.408,0.234-20.21,0.703V205.713c0-3.372-1.855-6.47-4.828-8.061
			c-2.971-1.588-6.578-1.417-9.386,0.454l-56.804,37.869l-46.002-61.335c35.35-57.654,113.94-122.268,122.058-128.862
			c0.862-0.568,1.634-1.287,2.277-2.144c7.002-9.331,17.685-14.683,29.31-14.683h9.089h2.31
			c8.219,31.771,37.371,54.857,70.833,54.857s62.614-23.086,70.833-54.857h11.4c11.629,0,22.312,5.348,29.31,14.674
			c0.623,0.83,1.368,1.53,2.196,2.087c7.656,6.212,86.643,71.037,122.138,128.926L445.875,235.974z"/>
	</g>
</g>
<g>
	<g>
		<path d="M325.012,157.85c-1.895-2.918-5.275-4.502-8.739-4.099l-43.464,5.131l-28.866-32.896
			c-2.295-2.616-5.875-3.703-9.239-2.801c-3.362,0.901-5.919,3.632-6.6,7.045l-8.551,42.923l-40.205,17.287
			c-3.196,1.375-5.337,4.445-5.518,7.921c-0.183,3.475,1.623,6.753,4.659,8.454l38.179,21.397l4.018,43.579
			c0.319,3.465,2.58,6.45,5.828,7.696c1.065,0.408,2.174,0.607,3.275,0.607c2.261,0,4.487-0.839,6.208-2.427l32.145-29.698
			l42.69,9.646c3.406,0.765,6.931-0.46,9.12-3.165c2.19-2.704,2.656-6.417,1.199-9.578l-18.31-39.751l22.366-37.618
			C326.982,164.51,326.907,160.769,325.012,157.85z M284.219,208.405l12.569,27.29l-29.308-6.623
			c-2.935-0.66-6.009,0.161-8.221,2.203l-22.067,20.388l-2.759-29.919c-0.277-2.997-2.009-5.665-4.634-7.136l-26.212-14.69
			l27.603-11.868c2.763-1.189,4.768-3.662,5.355-6.613l5.871-29.469l19.819,22.585c1.987,2.261,4.942,3.39,7.944,3.05l29.839-3.523
			l-15.355,25.827C283.125,202.494,282.96,205.671,284.219,208.405z"/>
	</g>
</g>
<g>
</g>
<g>
</g>
<g>
</g>
<g>
</g>
<g>
</g>
<g>
</g>
<g>
</g>
<g>
</g>
<g>
</g>
<g>
</g>
<g>
</g>
<g>
</g>
<g>
</g>
<g>
</g>
<g>
</g>
</svg>
