<?xml version="1.0" encoding="iso-8859-1"?>
<!-- Generator: Adobe Illustrator 19.0.0, SVG Export Plug-In . SVG Version: 6.00 Build 0)  -->
<svg version="1.1" id="Layer_1" xmlns="http://www.w3.org/2000/svg" xmlns:xlink="http://www.w3.org/1999/xlink" x="0px" y="0px"
	 viewBox="0 0 512 512" style="enable-background:new 0 0 512 512;" xml:space="preserve">
<g>
	<g>
		<path d="M319.97,447.261l-27.175-335.16c5.822-4.821,9.815-11.825,10.538-19.771l5.832-64.146
			c0.666-7.33-1.724-14.57-6.559-19.865C297.705,2.954,290.896,0,283.433,0h-54.865c-7.5,0-14.32,2.945-19.203,8.293
			c-4.89,5.354-7.208,12.419-6.528,19.891l5.832,64.146c0.707,7.778,4.739,14.763,10.549,19.619L192.03,447.261
			c-0.216,2.673,0.751,5.307,2.647,7.204l54.857,54.857C251.32,511.107,253.66,512,256,512c2.34,0,4.68-0.893,6.465-2.677
			l54.857-54.857C319.219,452.568,320.186,449.934,319.97,447.261z M222.867,20.623c1.377-1.507,3.402-2.337,5.701-2.337h54.865
			c2.263,0,4.277,0.839,5.669,2.365c1.4,1.532,2.058,3.619,1.853,5.877l-5.832,64.146c-0.489,5.365-5.443,9.897-10.819,9.897
			h-36.606c-5.285,0-10.339-4.625-10.819-9.897l-5.832-64.146C220.838,24.234,221.485,22.137,222.867,20.623z M278.094,157.063
			c-0.157,0.137-0.332,0.244-0.482,0.393l-47.599,47.599l6.99-86.198h0.694h36.606h0.693L278.094,157.063z M227.732,233.199
			l52.296-52.296l6.292,77.6c-0.068,0.064-0.147,0.108-0.214,0.174l-65.773,65.773L227.732,233.199z M218.051,352.594l70.205-70.205
			l5.603,69.106l-82.401,82.401L218.051,352.594z M256,489.928l-37.355-37.355l77.155-77.155l5.603,69.107L256,489.928z"/>
	</g>
</g>
<g>
</g>
<g>
</g>
<g>
</g>
<g>
</g>
<g>
</g>
<g>
</g>
<g>
</g>
<g>
</g>
<g>
</g>
<g>
</g>
<g>
</g>
<g>
</g>
<g>
</g>
<g>
</g>
<g>
</g>
</svg>
