<?xml version="1.0" encoding="UTF-8" standalone="no"?>
<!-- Created with Inkscape (http://www.inkscape.org/) -->

<svg
   xmlns:dc="http://purl.org/dc/elements/1.1/"
   xmlns:cc="http://creativecommons.org/ns#"
   xmlns:rdf="http://www.w3.org/1999/02/22-rdf-syntax-ns#"
   xmlns:svg="http://www.w3.org/2000/svg"
   xmlns="http://www.w3.org/2000/svg"
   xmlns:sodipodi="http://sodipodi.sourceforge.net/DTD/sodipodi-0.dtd"
   xmlns:inkscape="http://www.inkscape.org/namespaces/inkscape"
   width="577.68774"
   height="71.001465"
   id="svg2"
   version="1.1"
   inkscape:version="0.48.4 r9939"
   sodipodi:docname="logo.svg"
   inkscape:export-filename="/home/thomas/Documents/Merchandace/logo.png"
   inkscape:export-xdpi="90"
   inkscape:export-ydpi="90">
  <defs
     id="defs4" />
  <sodipodi:namedview
     id="base"
     pagecolor="#ffffff"
     bordercolor="#666666"
     borderopacity="1.0"
     inkscape:pageopacity="0.0"
     inkscape:pageshadow="2"
     inkscape:zoom="1.4"
     inkscape:cx="169.37532"
     inkscape:cy="-144.4208"
     inkscape:document-units="px"
     inkscape:current-layer="layer1"
     showgrid="false"
     inkscape:window-width="1615"
     inkscape:window-height="1026"
     inkscape:window-x="65"
     inkscape:window-y="24"
     inkscape:window-maximized="1"
     fit-margin-top="0"
     fit-margin-left="0"
     fit-margin-right="0"
     fit-margin-bottom="0" />
  <metadata
     id="metadata7">
    <rdf:RDF>
      <cc:Work
         rdf:about="">
        <dc:format>image/svg+xml</dc:format>
        <dc:type
           rdf:resource="http://purl.org/dc/dcmitype/StillImage" />
        <dc:title></dc:title>
      </cc:Work>
    </rdf:RDF>
  </metadata>
  <g
     inkscape:label="Layer 1"
     inkscape:groupmode="layer"
     id="layer1"
     transform="translate(-58.749995,-67.092287)">
    <path
       sodipodi:type="inkscape:offset"
       inkscape:radius="3.3999441"
       inkscape:original="M 286.25 70.5 L 268.84375 73.375 L 268.84375 133.96875 L 286.25 133.96875 L 286.25 111.625 C 286.24998 110.30855 286.47199 109.07315 286.875 107.90625 C 287.30484 106.70947 287.86834 105.64762 288.59375 104.75 C 289.31912 103.85243 290.19342 103.16492 291.1875 102.65625 C 292.20838 102.11772 293.28662 101.84379 294.46875 101.84375 C 295.30158 101.84379 296.0827 102.08514 296.78125 102.59375 C 297.50661 103.10242 298.11451 103.7886 298.625 104.65625 C 299.13542 105.49404 299.54819 106.48674 299.84375 107.59375 C 300.13925 108.70082 300.28121 109.83315 300.28125 111 L 300.28125 133.96875 L 317.625 133.96875 L 317.625 110.625 C 317.62494 107.1244 317.16341 103.93485 316.25 101.0625 C 315.3365 98.190223 314.08067 95.753345 312.46875 93.71875 C 310.88359 91.654315 308.993 90.075832 306.84375 88.96875 C 304.69441 87.831837 302.37353 87.250046 299.875 87.25 C 296.78535 87.250046 294.09171 88.108439 291.78125 89.84375 C 289.49759 91.579151 287.64702 94.356455 286.25 98.15625 L 286.25 70.5 z M 488.8125 70.5 L 471.40625 73.375 L 471.40625 96.53125 C 470.00918 93.210175 468.16298 90.842451 465.90625 89.40625 C 463.64946 87.970138 460.96021 87.250046 457.84375 87.25 C 455.15711 87.250046 452.60107 87.867077 450.15625 89.09375 C 447.73828 90.290592 445.60375 91.938225 443.75 94.0625 C 441.89622 96.186856 440.41402 98.722802 439.3125 101.625 C 438.23786 104.52727 437.71875 107.64899 437.71875 111 C 437.71875 114.1117 438.22908 117.09646 439.25 119.96875 C 440.27091 122.81117 441.66432 125.31585 443.4375 127.5 C 445.23753 129.68416 447.33641 131.43352 449.78125 132.75 C 452.22606 134.03656 454.90654 134.6875 457.78125 134.6875 C 461.11264 134.6875 463.89507 133.93216 466.125 132.40625 C 468.35486 130.8504 470.11663 128.51927 471.40625 125.4375 L 471.40625 133.96875 L 488.8125 133.96875 L 488.8125 70.5 z M 93.65625 87.25 C 90.486002 87.250046 87.739199 88.074528 85.375 89.75 C 83.037613 91.42556 81.093853 94.168956 79.5625 97.96875 L 79.5625 88.59375 L 62.15625 88.59375 L 62.15625 133.96875 L 79.5625 133.96875 L 79.5625 110.625 C 79.589344 109.45815 79.76695 108.35973 80.0625 107.3125 C 80.384873 106.26534 80.810786 105.34045 81.375 104.5625 C 81.939167 103.75469 82.627105 103.13633 83.40625 102.6875 C 84.212211 102.23873 85.099673 102.00003 86.09375 102 C 87.007173 102.00003 87.837082 102.24006 88.5625 102.71875 C 89.287858 103.16758 89.891376 103.81719 90.375 104.625 C 90.885426 105.43287 91.25817 106.39299 91.5 107.5 C 91.768628 108.57714 91.906216 109.74339 91.90625 111 L 91.90625 133.96875 L 109.15625 133.96875 L 109.15625 111 C 109.1562 110.0725 109.25816 109.07848 109.5 108.03125 C 109.76862 106.95416 110.18138 105.99271 110.71875 105.125 C 111.25603 104.22743 111.94834 103.47476 112.78125 102.90625 C 113.61405 102.30788 114.5947 102.00003 115.75 102 C 116.63653 102.00003 117.42641 102.23873 118.125 102.6875 C 118.82346 103.13633 119.4226 103.75469 119.90625 104.5625 C 120.38978 105.37037 120.75814 106.33049 121 107.4375 C 121.2686 108.51464 121.40619 109.71347 121.40625 111 L 121.40625 133.96875 L 138.8125 133.96875 L 138.8125 111 C 138.81242 107.49939 138.40404 104.27727 137.625 101.375 C 136.8458 98.472802 135.77197 96.000685 134.375 93.90625 C 132.97789 91.811894 131.31368 90.166922 129.40625 89 C 127.49868 87.833167 125.41295 87.250046 123.15625 87.25 C 119.17999 87.250046 115.96725 88.210169 113.46875 90.125 C 110.97013 92.03992 109.15958 94.887704 108.03125 98.6875 C 107.35954 96.6829 106.48962 94.967447 105.46875 93.53125 C 104.47465 92.065214 103.35641 90.865062 102.09375 89.9375 C 100.85785 89.010026 99.517625 88.325175 98.09375 87.90625 C 96.669808 87.457497 95.187592 87.250046 93.65625 87.25 z M 167.59375 87.25 C 164.45037 87.250046 161.48596 87.831837 158.71875 88.96875 C 155.95152 90.075832 153.53743 91.655645 151.46875 93.75 C 149.40004 95.814515 147.74023 98.317883 146.53125 101.25 C 145.34914 104.15227 144.78124 107.40963 144.78125 111 C 144.78124 114.4109 145.34037 117.56653 146.46875 120.46875 C 147.624 123.371 149.20816 125.87568 151.25 128 C 153.31868 130.0944 155.77717 131.7407 158.625 132.9375 C 161.49966 134.10438 164.69048 134.6875 168.15625 134.6875 C 174.38918 134.6875 180.00285 133.41953 185 130.90625 L 182.96875 118.5625 C 178.61637 120.71674 174.57375 121.81251 170.8125 121.8125 C 168.44824 121.81251 166.50449 121.33379 165 120.40625 C 163.49548 119.44883 162.42603 117.90426 161.78125 115.75 L 186.53125 112.15625 C 186.58495 111.79724 186.62935 111.42024 186.65625 111.03125 C 186.68305 110.64231 186.68745 110.2314 186.6875 109.8125 C 186.68745 106.70085 186.27469 103.78525 185.46875 101.0625 C 184.68958 98.309903 183.48693 95.940845 181.875 93.90625 C 180.28985 91.841814 178.32856 90.198172 175.9375 89.03125 C 173.54637 87.834497 170.76393 87.250046 167.59375 87.25 z M 222.9375 87.25 C 220.08965 87.250046 217.578 88.108439 215.375 89.84375 C 213.19881 91.549231 211.44142 94.258716 210.125 97.96875 L 210.125 88.59375 L 192.71875 88.59375 L 192.71875 133.96875 L 210.125 133.96875 L 210.125 110.09375 C 210.12497 107.37106 211.36765 105.383 213.8125 104.15625 C 216.28416 102.89964 220.13605 102.28128 225.375 102.28125 L 222.9375 87.25 z M 250.03125 87.25 C 247.04908 87.250046 244.21347 87.831837 241.5 88.96875 C 238.7865 90.105752 236.38118 91.718145 234.3125 93.8125 C 232.27065 95.877015 230.64648 98.349133 229.4375 101.28125 C 228.22852 104.18352 227.625 107.43956 227.625 111 C 227.625 114.5605 228.17974 117.78661 229.28125 120.71875 C 230.40963 123.621 231.98065 126.12303 233.96875 128.1875 C 235.95684 130.25197 238.29089 131.8318 241.03125 132.96875 C 243.77159 134.10571 246.78042 134.6875 250.03125 134.6875 C 252.34172 134.6875 254.47623 134.48271 256.4375 134.09375 C 258.42556 133.70479 260.46252 132.91555 262.53125 131.71875 L 260.90625 118.875 C 258.19272 119.89229 255.6323 120.40627 253.1875 120.40625 C 251.89789 120.40627 250.704 120.19883 249.65625 119.75 C 248.63531 119.30123 247.78786 118.65028 247.0625 117.8125 C 246.33709 116.97476 245.74673 115.98072 245.34375 114.84375 C 244.96761 113.67689 244.78123 112.40627 244.78125 111 C 244.78123 109.59379 244.96761 108.32448 245.34375 107.1875 C 245.74673 106.02065 246.30146 105.02662 247 104.21875 C 247.72536 103.41094 248.59969 102.79258 249.59375 102.34375 C 250.61465 101.89498 251.73725 101.65629 253 101.65625 C 255.47166 101.65629 258.16092 102.17025 261.0625 103.1875 L 262.6875 90.96875 C 261.55908 90.220794 260.49841 89.603763 259.53125 89.125 C 258.56404 88.646326 257.6234 88.269326 256.65625 88 C 255.68903 87.700847 254.66838 87.52731 253.59375 87.4375 C 252.54594 87.31787 251.34767 87.250046 250.03125 87.25 z M 343.78125 87.25 C 341.12147 87.250046 338.5698 87.833167 336.125 89 C 333.70702 90.137002 331.53687 91.749394 329.65625 93.84375 C 327.80247 95.908265 326.31588 98.377723 325.1875 101.25 C 324.08598 104.12235 323.53125 107.27665 323.53125 110.6875 C 323.53125 114.12831 324.08598 117.31786 325.1875 120.25 C 326.28901 123.18217 327.77123 125.72077 329.625 127.875 C 331.47877 129.99932 333.61765 131.67953 336.0625 132.90625 C 338.5073 134.10305 341.09461 134.6875 343.78125 134.6875 C 347.11264 134.6875 349.85945 133.89826 352.0625 132.3125 C 354.2655 130.72675 356.02289 128.4295 357.3125 125.4375 L 357.3125 133.96875 L 374.625 133.96875 L 374.625 87.25 L 357.3125 87.25 L 357.3125 97.96875 C 356.66768 96.083832 355.83776 94.471438 354.84375 93.125 C 353.87654 91.778644 352.8027 90.680222 351.59375 89.8125 C 350.41161 88.914945 349.15579 88.264006 347.8125 87.875 C 346.49604 87.456167 345.15141 87.250046 343.78125 87.25 z M 414.6875 87.25 C 411.27546 87.250046 408.30226 88.141019 405.75 89.90625 C 403.22454 91.671571 401.14321 94.348476 399.53125 97.96875 L 399.53125 88.59375 L 382.9375 88.59375 L 382.9375 133.96875 L 400.34375 133.96875 L 400.34375 109.65625 C 400.47806 108.9382 400.79325 108.08114 401.25 107.09375 C 401.7067 106.0765 402.27458 105.0838 403 104.15625 C 403.75223 103.22876 404.63093 102.4721 405.625 101.84375 C 406.61903 101.18555 407.72412 100.84379 408.90625 100.84375 C 409.8734 100.84379 410.67207 101.04991 411.34375 101.46875 C 412.01538 101.85774 412.5701 102.43953 413 103.1875 C 413.45669 103.90561 413.78065 104.764 413.96875 105.78125 C 414.18364 106.79855 414.28121 107.89698 414.28125 109.09375 L 414.28125 133.96875 L 431.625 133.96875 L 431.625 111 C 431.62494 107.43956 431.2522 104.18352 430.5 101.28125 C 429.77456 98.349133 428.66948 95.877015 427.21875 93.8125 C 425.79479 91.718145 424.03302 90.105752 421.9375 88.96875 C 419.8419 87.831837 417.42782 87.250046 414.6875 87.25 z M 515.4375 87.25 C 512.77772 87.250046 510.22606 87.833167 507.78125 89 C 505.36328 90.137002 503.22439 91.749394 501.34375 93.84375 C 499.48998 95.908265 498.00338 98.377723 496.875 101.25 C 495.77349 104.12235 495.21874 107.27665 495.21875 110.6875 C 495.21874 114.12831 495.77349 117.31786 496.875 120.25 C 497.97652 123.18217 499.45872 125.72077 501.3125 127.875 C 503.16626 129.99932 505.30516 131.67953 507.75 132.90625 C 510.19481 134.10305 512.75086 134.6875 515.4375 134.6875 C 518.76888 134.6875 521.54695 133.89826 523.75 132.3125 C 525.953 130.72675 527.71038 128.4295 529 125.4375 L 529 133.96875 L 546.3125 133.96875 L 546.3125 87.25 L 529 87.25 L 529 97.96875 C 528.35517 96.083832 527.52526 94.471438 526.53125 93.125 C 525.56403 91.778644 524.45895 90.680222 523.25 89.8125 C 522.06786 88.914945 520.81203 88.264006 519.46875 87.875 C 518.15228 87.456167 516.80765 87.250046 515.4375 87.25 z M 575 87.25 C 572.01782 87.250046 569.18222 87.831837 566.46875 88.96875 C 563.75524 90.105752 561.34995 91.718145 559.28125 93.8125 C 557.23941 95.877015 555.61523 98.349133 554.40625 101.28125 C 553.19727 104.18352 552.59375 107.43956 552.59375 111 C 552.59375 114.5605 553.14848 117.78661 554.25 120.71875 C 555.37837 123.621 556.9494 126.12303 558.9375 128.1875 C 560.92559 130.25197 563.29088 131.8318 566.03125 132.96875 C 568.77159 134.10571 571.74916 134.6875 575 134.6875 C 577.31048 134.6875 579.44499 134.48271 581.40625 134.09375 C 583.39432 133.70479 585.43126 132.91555 587.5 131.71875 L 585.875 118.875 C 583.16148 119.89229 580.60104 120.40627 578.15625 120.40625 C 576.86663 120.40627 575.70401 120.19883 574.65625 119.75 C 573.63531 119.30123 572.75662 118.65028 572.03125 117.8125 C 571.30584 116.97476 570.74672 115.98072 570.34375 114.84375 C 569.9676 113.67689 569.78123 112.40627 569.78125 111 C 569.78123 109.59379 569.9676 108.32448 570.34375 107.1875 C 570.74672 106.02065 571.30145 105.02662 572 104.21875 C 572.72537 103.41094 573.56842 102.79258 574.5625 102.34375 C 575.58339 101.89498 576.73726 101.65629 578 101.65625 C 580.47167 101.65629 583.16091 102.17025 586.0625 103.1875 L 587.65625 90.96875 C 586.52783 90.220794 585.4984 89.603763 584.53125 89.125 C 583.56404 88.646326 582.59214 88.269326 581.625 88 C 580.65778 87.700847 579.63712 87.52731 578.5625 87.4375 C 577.51469 87.31787 576.31642 87.250046 575 87.25 z M 613.9375 87.25 C 610.79412 87.250046 607.8297 87.831837 605.0625 88.96875 C 602.29526 90.075832 599.8812 91.655645 597.8125 93.75 C 595.7438 95.814515 594.11523 98.317883 592.90625 101.25 C 591.72414 104.15227 591.125 107.40963 591.125 111 C 591.125 114.4109 591.68411 117.56653 592.8125 120.46875 C 593.96774 123.371 595.58316 125.87568 597.625 128 C 599.69369 130.0944 602.15216 131.7407 605 132.9375 C 607.87467 134.10438 611.03424 134.6875 614.5 134.6875 C 620.73294 134.6875 626.3466 133.41953 631.34375 130.90625 L 629.34375 118.5625 C 624.99139 120.71674 620.91749 121.81251 617.15625 121.8125 C 614.792 121.81251 612.84823 121.33379 611.34375 120.40625 C 609.83921 119.44883 608.76977 117.90426 608.125 115.75 L 632.875 112.15625 C 632.92869 111.79724 632.9731 111.42024 633 111.03125 C 633.0268 110.64231 633.0312 110.2314 633.03125 109.8125 C 633.0312 106.70085 632.64969 103.78525 631.84375 101.0625 C 631.06459 98.309903 629.86192 95.940845 628.25 93.90625 C 626.66485 91.841814 624.67231 90.198172 622.28125 89.03125 C 619.89013 87.834497 617.10769 87.250046 613.9375 87.25 z M 167.59375 98.4375 C 170.84453 98.437535 172.93465 100.32653 173.875 104.15625 L 161.0625 107.3125 C 161.08935 106.0559 161.2357 104.88965 161.53125 103.8125 C 161.82675 102.70549 162.2439 101.74671 162.78125 100.96875 C 163.34542 100.16095 164.03774 99.542584 164.84375 99.09375 C 165.64971 98.644985 166.5728 98.437535 167.59375 98.4375 z M 613.9375 98.4375 C 617.18829 98.437535 619.27841 100.32653 620.21875 104.15625 L 607.40625 107.3125 C 607.43309 106.0559 607.61071 104.88965 607.90625 103.8125 C 608.20176 102.70549 608.58764 101.74671 609.125 100.96875 C 609.68917 100.16095 610.3815 99.542584 611.1875 99.09375 C 611.99347 98.644985 612.91656 98.437535 613.9375 98.4375 z M 349.15625 101.84375 C 350.20401 101.84379 351.22028 102.08381 352.1875 102.5625 C 353.15464 103.01133 353.99333 103.62969 354.71875 104.4375 C 355.47097 105.21545 356.07449 106.14165 356.53125 107.21875 C 356.98795 108.29589 357.2588 109.42823 357.3125 110.625 L 357.3125 111.34375 C 357.25873 112.51065 357.02357 113.64164 356.59375 114.71875 C 356.16386 115.76596 355.5691 116.69219 354.84375 117.5 C 354.11833 118.30785 353.27966 118.9588 352.3125 119.4375 C 351.34529 119.91623 350.28461 120.15626 349.15625 120.15625 C 348.05471 120.15626 347.02527 119.91756 346.03125 119.46875 C 345.03717 118.99005 344.15409 118.33911 343.375 117.53125 C 342.62272 116.72343 342.0192 115.7633 341.5625 114.65625 C 341.10575 113.51931 340.87498 112.3165 340.875 111 C 340.87498 109.74339 341.07012 108.54456 341.5 107.4375 C 341.92983 106.33049 342.52459 105.37037 343.25 104.5625 C 344.00223 103.72477 344.88092 103.0725 345.875 102.59375 C 346.89589 102.08514 347.97411 101.84379 349.15625 101.84375 z M 463.25 101.84375 C 464.29775 101.84379 465.31403 102.08381 466.28125 102.5625 C 467.24841 103.01133 468.08708 103.62969 468.8125 104.4375 C 469.56472 105.21545 470.16824 106.14165 470.625 107.21875 C 471.08169 108.29589 471.35255 109.42823 471.40625 110.625 L 471.40625 111 C 471.40622 112.19682 471.17982 113.33047 470.75 114.4375 C 470.34697 115.54455 469.78785 116.53726 469.0625 117.375 C 468.33707 118.21278 467.46277 118.86638 466.46875 119.375 C 465.47467 119.88366 464.40522 120.15626 463.25 120.15625 C 462.14846 120.15626 461.11903 119.91756 460.125 119.46875 C 459.13093 118.99005 458.25223 118.33911 457.5 117.53125 C 456.74773 116.69351 456.14421 115.73205 455.6875 114.625 C 455.25763 113.51798 455.03123 112.3165 455.03125 111 C 455.03123 109.77331 455.22199 108.60706 455.625 107.5 C 456.05484 106.39299 456.64959 105.40029 457.375 104.5625 C 458.10037 103.72477 458.94342 103.0725 459.9375 102.59375 C 460.95839 102.08514 462.06786 101.84379 463.25 101.84375 z M 520.84375 101.84375 C 521.8915 101.84379 522.90778 102.08381 523.875 102.5625 C 524.84216 103.01133 525.68083 103.62969 526.40625 104.4375 C 527.15847 105.21545 527.76199 106.14165 528.21875 107.21875 C 528.67544 108.29589 528.9463 109.42823 529 110.625 L 529 111.34375 C 528.94623 112.51065 528.67983 113.64164 528.25 114.71875 C 527.8201 115.76596 527.2566 116.69219 526.53125 117.5 C 525.80583 118.30785 524.96715 118.9588 524 119.4375 C 523.03279 119.91623 521.9721 120.15626 520.84375 120.15625 C 519.74221 120.15626 518.68153 119.91756 517.6875 119.46875 C 516.69343 118.99005 515.81036 118.33911 515.03125 117.53125 C 514.27898 116.72343 513.67546 115.7633 513.21875 114.65625 C 512.76201 113.51931 512.53123 112.3165 512.53125 111 C 512.53123 109.74339 512.75763 108.54456 513.1875 107.4375 C 513.61734 106.33049 514.18084 105.37037 514.90625 104.5625 C 515.65848 103.72477 516.53717 103.0725 517.53125 102.59375 C 518.55214 102.08514 519.66161 101.84379 520.84375 101.84375 z "
       style="font-size:87.09738159px;font-style:normal;font-variant:normal;font-weight:normal;font-stretch:normal;line-height:125%;letter-spacing:0px;word-spacing:0px;fill:#000000;fill-opacity:1;stroke:none;font-family:Paytone One;-inkscape-font-specification:Paytone One"
       id="path3057"
       d="m 286.15625,67.09375 a 3.4002841,3.4002841 0 0 0 -0.46875,0.0625 l -17.40625,2.875 A 3.4002841,3.4002841 0 0 0 265.4375,73.375 l 0,15.59375 a 3.4002841,3.4002841 0 0 0 -0.875,-0.84375 c -1.22848,-0.814278 -2.40893,-1.506928 -3.53125,-2.0625 -1.08693,-0.537925 -2.20202,-0.978404 -3.375,-1.3125 -0.032,-0.0099 -0.0617,-0.02158 -0.0937,-0.03125 -1.1941,-0.3605 -2.39862,-0.520123 -3.59375,-0.625 -0.002,-1.61e-4 0.002,-0.03109 0,-0.03125 -0.0283,-0.0032 -0.0653,0.0032 -0.0937,0 -1.17168,-0.130165 -2.44464,-0.218701 -3.84375,-0.21875 -3.42433,5.3e-5 -6.73293,0.6966 -9.84375,2 -3.10226,1.299898 -5.87215,3.190958 -8.25,5.59375 l -0.0312,0 c -1.55599,1.576343 -2.84333,3.455823 -3.96875,5.4375 l -1.65625,-10.15625 a 3.4002841,3.4002841 0 0 0 -3.34375,-2.875 c -3.52169,5.7e-5 -6.86743,1.179564 -9.625,3.34375 l -0.0312,0 c -0.0167,0.01312 -0.0459,0.01806 -0.0625,0.03125 A 3.4002841,3.4002841 0 0 0 210.125,85.1875 l -17.40625,0 a 3.4002841,3.4002841 0 0 0 -3.40625,3.40625 l 0,14.21875 c -0.18365,-0.90131 -0.33707,-1.81726 -0.59375,-2.6875 -0.003,-0.01 0.003,-0.0216 0,-0.0312 -0.88359,-3.103122 -2.28723,-5.875802 -4.15625,-8.25 -0.0136,-0.0177 -0.0176,-0.04485 -0.0312,-0.0625 l -0.0312,0 C 182.63753,89.37661 180.28732,87.38323 177.46875,86 c -0.009,-0.0044 -0.0225,0.0044 -0.0312,0 -2.93258,-1.461811 -6.2664,-2.156198 -9.84375,-2.15625 -3.55251,5.2e-5 -6.95325,0.669918 -10.125,1.96875 -0.009,0.0038 -0.022,-0.0038 -0.0312,0 -3.15175,1.264817 -5.95662,3.150579 -8.34375,5.5625 l -0.0312,0 c -2.3898,2.389657 -4.3237,5.286147 -5.6875,8.59375 -0.70928,1.74139 -1.17227,3.59232 -1.5,5.5 -0.21772,-1.73043 -0.5413,-3.37632 -0.96875,-4.96875 -0.85667,-3.190734 -2.05153,-6.015993 -3.6875,-8.46875 -1.63272,-2.447553 -3.66146,-4.487714 -6.03125,-5.9375 -2.41853,-1.479377 -5.18891,-2.249942 -8.03125,-2.25 -4.52355,5.2e-5 -8.57012,1.156718 -11.75,3.59375 -1.3494,1.034166 -2.5001,2.299583 -3.5,3.71875 -1.08825,-1.510128 -2.33575,-2.869313 -3.78125,-3.9375 -0.0116,-0.0087 -0.0196,-0.02256 -0.0312,-0.03125 -1.50924,-1.126618 -3.17564,-1.963417 -4.96875,-2.5 l 0,-0.03125 c -0.01993,-0.0063 -0.04255,0.0062 -0.0625,0 -1.763847,-0.548635 -3.588469,-0.812445 -5.40625,-0.8125 -3.759699,5.5e-5 -7.301502,1.035444 -10.25,3.125 a 3.4002841,3.4002841 0 0 0 0,0.03125 c -0.222998,0.159856 -0.379136,0.421594 -0.59375,0.59375 a 3.4002841,3.4002841 0 0 0 -3.25,-2.40625 l -17.40625,0 A 3.4002841,3.4002841 0 0 0 58.75,88.59375 l 0,45.375 a 3.4002841,3.4002841 0 0 0 3.40625,3.40625 l 17.40625,0 a 3.4002841,3.4002841 0 0 0 3.40625,-3.40625 l 0,-23.25 0,-0.0937 c 0.02711,-0.83412 0.159832,-1.61259 0.375,-2.375 0.234644,-0.73779 0.502014,-1.30248 0.78125,-1.6875 A 3.4002841,3.4002841 0 0 0 84.15625,106.5 c 0.277724,-0.39766 0.563995,-0.64069 0.90625,-0.84375 0.326839,-0.18199 0.58138,-0.24999 1.03125,-0.25 0.317864,1e-5 0.427208,0.0464 0.59375,0.15625 a 3.4002841,3.4002841 0 0 0 0.09375,0.0625 c 0.19468,0.12046 0.431574,0.32252 0.6875,0.75 A 3.4002841,3.4002841 0 0 0 87.5,106.4375 c 0.25993,0.4114 0.513655,0.98545 0.6875,1.78125 a 3.4002841,3.4002841 0 0 0 0,0.0937 c 0.195157,0.78254 0.312473,1.67901 0.3125,2.6875 l 0,22.96875 a 3.4002841,3.4002841 0 0 0 3.40625,3.40625 l 17.25,0 a 3.4002841,3.4002841 0 0 0 3.40625,-3.40625 l 0,-22.96875 c -4e-5,-0.65933 0.0781,-1.38965 0.25,-2.15625 0.18569,-0.74457 0.42546,-1.363 0.78125,-1.9375 a 3.4002841,3.4002841 0 0 0 0.0312,-0.0312 c 0.30642,-0.51191 0.65911,-0.88092 1.0625,-1.15625 a 3.4002841,3.4002841 0 0 0 0.0625,-0.0625 c 0.25443,-0.18281 0.44863,-0.24999 1,-0.25 0.2763,1e-5 0.35192,0.041 0.53125,0.15625 0.24757,0.15909 0.47798,0.34786 0.71875,0.75 0.26468,0.44222 0.51179,1.03953 0.6875,1.84375 a 3.4002841,3.4002841 0 0 0 0,0.0937 c 0.19126,0.76698 0.31245,1.70578 0.3125,2.75 l 0,22.96875 a 3.4002841,3.4002841 0 0 0 3.40625,3.40625 l 17.40625,0 a 3.4002841,3.4002841 0 0 0 3.40625,-3.40625 l 0,-16.125 c 0.29866,1.30968 0.61202,2.60472 1.09375,3.84375 a 3.4002841,3.4002841 0 0 0 0,0.0312 c 1.30165,3.27003 3.14175,6.17149 5.5,8.625 a 3.4002841,3.4002841 0 0 0 0.0312,0.0312 c 2.38912,2.41882 5.23857,4.33002 8.46875,5.6875 a 3.4002841,3.4002841 0 0 0 0.0312,0.0312 c 3.32131,1.34819 6.96537,2 10.8125,2 6.69403,0 12.87482,-1.38997 18.375,-4.15625 a 3.4002841,3.4002841 0 0 0 1.8125,-3.59375 L 186.3125,118 a 3.4002841,3.4002841 0 0 0 -1.34375,-2.15625 l 2.0625,-0.3125 a 3.4002841,3.4002841 0 0 0 2.28125,-1.40625 l 0,19.84375 a 3.4002841,3.4002841 0 0 0 3.40625,3.40625 l 17.40625,0 a 3.4002841,3.4002841 0 0 0 3.40625,-3.40625 l 0,-23.875 c -2e-5,-1.68815 0.27093,-2.13274 1.8125,-2.90625 1.51774,-0.77163 4.81425,-1.4018 9.375,-1.46875 -0.29239,1.7123 -0.5,3.45951 -0.5,5.28125 0,3.91365 0.61692,7.55734 1.875,10.90625 a 3.4002841,3.4002841 0 0 0 0.0312,0.0312 c 1.27546,3.28054 3.08684,6.18525 5.40625,8.59375 2.30921,2.39792 5.0486,4.2602 8.1875,5.5625 3.1748,1.31722 6.65602,2 10.3125,2 2.51137,0 4.86288,-0.22002 7.0625,-0.65625 2.40911,-0.47134 4.77973,-1.42447 7.125,-2.78125 A 3.4002841,3.4002841 0 0 0 265.4375,133.5 l 0,0.46875 a 3.4002841,3.4002841 0 0 0 3.40625,3.40625 l 17.40625,0 a 3.4002841,3.4002841 0 0 0 3.40625,-3.40625 l 0,-22.34375 c -10e-6,-0.93417 0.15043,-1.76256 0.4375,-2.59375 0.32327,-0.88716 0.72126,-1.61799 1.15625,-2.15625 0.41937,-0.51893 0.8922,-0.87649 1.5,-1.1875 a 3.4002841,3.4002841 0 0 0 0.0312,-0.0312 c 0.56789,-0.29957 1.03054,-0.40623 1.6875,-0.40625 0.17607,1e-5 0.17519,-0.006 0.3125,0.0937 a 3.4002841,3.4002841 0 0 0 0.0625,0.0312 c 0.27966,0.19611 0.53419,0.47386 0.84375,1 a 3.4002841,3.4002841 0 0 0 0.0312,0.0625 c 0.31329,0.51422 0.62102,1.19704 0.84375,2.03125 0.2165,0.81109 0.31247,1.64008 0.3125,2.53125 l 0,22.96875 a 3.4002841,3.4002841 0 0 0 3.40625,3.40625 l 17.34375,0 a 3.4002841,3.4002841 0 0 0 3.40625,-3.40625 l 0,-16.09375 c 0.28159,1.20812 0.53779,2.41531 0.96875,3.5625 1.22743,3.26736 2.9318,6.18021 5.0625,8.65625 a 3.4002841,3.4002841 0 0 0 0,0.0312 c 2.12167,2.43131 4.62207,4.38416 7.46875,5.8125 a 3.4002841,3.4002841 0 0 0 0.0312,0.0312 c 2.903,1.4211 6.03903,2.125 9.21875,2.125 3.86838,0 7.42479,-0.97516 10.28125,-3.03125 0.0119,-0.009 0.0193,-0.0226 0.0312,-0.0312 a 3.4002841,3.4002841 0 0 0 3.21875,2.34375 l 17.3125,0 a 3.4002841,3.4002841 0 0 0 3.40625,-3.40625 l 0,-46.71875 A 3.4002841,3.4002841 0 0 0 374.625,83.84375 l -17.3125,0 A 3.4002841,3.4002841 0 0 0 353.90625,87.25 l 0,0.15625 c -0.10416,-0.07968 -0.17518,-0.204219 -0.28125,-0.28125 l 0.0312,-0.03125 c -1.44888,-1.100082 -3.07585,-1.952318 -4.8125,-2.46875 -0.01,-0.0032 -0.0213,0.0031 -0.0312,0 -0.0223,-0.0066 -0.0401,-0.02478 -0.0625,-0.03125 -1.61754,-0.504139 -3.29022,-0.749944 -4.96875,-0.75 -3.14684,5.4e-5 -6.22407,0.728885 -9.09375,2.09375 -0.009,0.0043 -0.0223,-0.0043 -0.0312,0 -2.81953,1.32982 -5.36769,3.215543 -7.53125,5.625 -2.15055,2.395026 -3.83627,5.236604 -5.09375,8.4375 A 3.4002841,3.4002841 0 0 0 322,100.03125 c -0.61264,1.59754 -1.06262,3.27679 -1.375,5 -0.25451,-1.73123 -0.618,-3.40567 -1.125,-5 -1.01038,-3.176888 -2.46587,-5.98983 -4.34375,-8.375 -0.0139,-0.01807 -0.0173,-0.04448 -0.0312,-0.0625 l -0.0312,0 c -1.85127,-2.390485 -4.10016,-4.301121 -6.65625,-5.625 -0.009,-0.0046 -0.0226,0.0046 -0.0312,0 -2.61306,-1.376862 -5.51494,-2.124944 -8.53125,-2.125 -3.71935,5.5e-5 -7.23042,1.107225 -10.125,3.28125 a 3.4002841,3.4002841 0 0 0 -0.0312,0 c -0.023,0.01747 -0.0396,0.04489 -0.0625,0.0625 l 0,-16.6875 a 3.4002841,3.4002841 0 0 0 -3.5,-3.40625 z m 202.5625,0 a 3.4002841,3.4002841 0 0 0 -0.46875,0.0625 l -17.40625,2.875 A 3.4002841,3.4002841 0 0 0 468,73.375 l 0,13.40625 c -0.1028,-0.0693 -0.17664,-0.183427 -0.28125,-0.25 -2.85461,-1.816535 -6.23484,-2.687446 -9.875,-2.6875 -3.19375,5.5e-5 -6.31227,0.751608 -9.1875,2.1875 l 0,0.03125 c -0.009,0.0044 -0.0224,-0.0044 -0.0312,0 -2.8012,1.3929 -5.31599,3.318894 -7.4375,5.75 -2.14481,2.45786 -3.83509,5.359866 -5.0625,8.59375 a 3.4002841,3.4002841 0 0 0 0,0.0312 c -0.63455,1.71371 -1.1089,3.48575 -1.40625,5.3125 -0.20174,-1.83969 -0.50303,-3.59864 -0.9375,-5.28125 -0.002,-0.01 0.002,-0.0213 0,-0.0312 -0.80598,-3.239582 -2.05893,-6.10858 -3.75,-8.53125 -0.0129,-0.01903 -0.0183,-0.04353 -0.0312,-0.0625 -1.69538,-2.475371 -3.87941,-4.487013 -6.4375,-5.875 -2.63026,-1.426979 -5.65349,-2.124946 -8.875,-2.125 -4.00389,5.4e-5 -7.74696,1.117787 -10.875,3.28125 -0.351,0.245349 -0.60363,0.634902 -0.9375,0.90625 a 3.4002841,3.4002841 0 0 0 -3.34375,-2.84375 l -16.59375,0 a 3.4002841,3.4002841 0 0 0 -3.40625,3.40625 l 0,45.375 a 3.4002841,3.4002841 0 0 0 3.40625,3.40625 l 17.40625,0 a 3.4002841,3.4002841 0 0 0 3.40625,-3.40625 l 0,-23.84375 c 0.07,-0.29562 0.23683,-0.82217 0.59375,-1.59375 a 3.4002841,3.4002841 0 0 0 0,-0.0312 c 0.35421,-0.78897 0.80103,-1.5235 1.3125,-2.1875 0.50614,-0.62406 1.06431,-1.14057 1.78125,-1.59375 a 3.4002841,3.4002841 0 0 0 0.0625,-0.0312 c 0.47859,-0.3169 0.87934,-0.43748 1.40625,-0.4375 0.48416,2e-5 0.55516,0.0502 0.625,0.0937 a 3.4002841,3.4002841 0 0 0 0.0937,0.0625 c 0.10194,0.059 0.2577,0.15592 0.4375,0.46875 A 3.4002841,3.4002841 0 0 0 410.125,105 c 0.18902,0.29722 0.37663,0.73907 0.5,1.40625 a 3.4002841,3.4002841 0 0 0 0.0312,0.0625 c 0.15562,0.73671 0.21872,1.61295 0.21875,2.625 l 0,24.875 a 3.4002841,3.4002841 0 0 0 3.40625,3.40625 l 17.34375,0 a 3.4002841,3.4002841 0 0 0 3.40625,-3.40625 l 0,-16.71875 c 0.27388,1.30253 0.55226,2.58406 1,3.84375 a 3.4002841,3.4002841 0 0 0 0.0312,0.0312 c 1.13881,3.17067 2.72451,6.03631 4.75,8.53125 2.05833,2.49758 4.5071,4.56629 7.34375,6.09375 a 3.4002841,3.4002841 0 0 0 0.0312,0 c 2.93289,1.54341 6.20579,2.34375 9.59375,2.34375 3.84531,0 7.36381,-0.90002 10.25,-2.875 a 3.4002841,3.4002841 0 0 0 0.0312,-0.0312 c 0.0482,-0.0337 0.0772,-0.0908 0.125,-0.125 a 3.4002841,3.4002841 0 0 0 3.21875,2.3125 l 17.40625,0 a 3.4002841,3.4002841 0 0 0 3.40625,-3.40625 l 0,-18.46875 c 0.30555,2.05604 0.75676,4.04224 1.46875,5.9375 1.22743,3.26734 2.93178,6.18019 5.0625,8.65625 a 3.4002841,3.4002841 0 0 0 0,0.0312 c 2.12167,2.43133 4.62209,4.38416 7.46875,5.8125 a 3.4002841,3.4002841 0 0 0 0.0312,0.0312 c 2.89272,1.41606 6.00778,2.125 9.1875,2.125 3.86837,0 7.44366,-0.96625 10.3125,-3.03125 0.0119,-0.009 0.0193,-0.0226 0.0312,-0.0312 A 3.4002841,3.4002841 0 0 0 529,137.375 l 17.3125,0 a 3.4002841,3.4002841 0 0 0 3.40625,-3.40625 l 0,-17.09375 c 0.31069,1.73891 0.74103,3.42687 1.34375,5.03125 a 3.4002841,3.4002841 0 0 0 0.0312,0.0312 c 1.27545,3.28055 3.08685,6.18525 5.40625,8.59375 2.32155,2.41074 5.08829,4.2637 8.21875,5.5625 3.16635,1.31371 6.62476,2 10.28125,2 2.51138,0 4.86289,-0.22002 7.0625,-0.65625 2.40913,-0.47134 4.77973,-1.42447 7.125,-2.78125 a 3.4002841,3.4002841 0 0 0 1.6875,-3.375 L 589.65625,121.75 c 1.30889,3.27874 3.19129,6.15927 5.53125,8.59375 a 3.4002841,3.4002841 0 0 0 0.0312,0.0312 c 2.38912,2.41881 5.23855,4.33001 8.46875,5.6875 a 3.4002841,3.4002841 0 0 0 0.0312,0.0312 c 3.31336,1.34495 6.93413,2 10.78125,2 6.69404,0 12.87482,-1.38998 18.375,-4.15625 a 3.4002841,3.4002841 0 0 0 1.8125,-3.5625 l -2,-12.34375 a 3.4002841,3.4002841 0 0 0 -1.34375,-2.21875 l 2.03125,-0.28125 a 3.4002841,3.4002841 0 0 0 2.875,-2.875 c 0.0646,-0.43212 0.12201,-0.87991 0.15625,-1.375 a 3.4002841,3.4002841 0 0 0 0,-0.0312 c 0.0363,-0.52732 0.0312,-0.99506 0.0312,-1.4375 -5e-5,-3.37884 -0.43917,-6.61995 -1.34375,-9.6875 -0.003,-0.01 0.003,-0.0216 0,-0.0312 -0.88358,-3.103143 -2.28725,-5.875816 -4.15625,-8.25 -0.0136,-0.01771 -0.0176,-0.04484 -0.0312,-0.0625 l -0.0312,0 C 628.99925,89.360131 626.6212,87.37818 623.8125,86 c -0.009,-0.0044 -0.0225,0.0044 -0.0312,0 -2.93258,-1.461814 -6.26639,-2.156198 -9.84375,-2.15625 -3.55251,5.2e-5 -6.95325,0.669915 -10.125,1.96875 -0.009,0.0038 -0.022,-0.0038 -0.0312,0 -3.15177,1.26482 -5.95662,3.150601 -8.34375,5.5625 l -0.0312,0 c -2.29598,2.296024 -4.09769,5.07626 -5.4375,8.1875 l 1.0625,-8.15625 a 3.4002841,3.4002841 0 0 0 -1.5,-3.28125 c -1.20439,-0.798312 -2.35161,-1.494017 -3.5,-2.0625 -1.11257,-0.550614 -2.24867,-0.983456 -3.40625,-1.3125 -0.032,-0.0099 -0.0617,-0.02158 -0.0937,-0.03125 -1.19411,-0.360502 -2.39863,-0.520124 -3.59375,-0.625 -0.002,-1.61e-4 0.002,-0.03109 0,-0.03125 -0.0284,-0.0032 -0.0653,0.0032 -0.0937,0 -1.17168,-0.130165 -2.44464,-0.218701 -3.84375,-0.21875 -3.42434,5.3e-5 -6.73293,0.696601 -9.84375,2 -3.10228,1.299901 -5.87215,3.19098 -8.25,5.59375 l -0.0312,0 c -2.34468,2.375356 -4.23704,5.254333 -5.59375,8.53125 -0.004,0.0087 0.004,0.02252 0,0.03125 -0.69506,1.67422 -1.22108,3.44837 -1.5625,5.28125 l 0,-18.03125 a 3.4002841,3.4002841 0 0 0 -3.40625,-3.40625 l -17.3125,0 A 3.4002841,3.4002841 0 0 0 525.59375,87.25 l 0,0.1875 c -0.11409,-0.08735 -0.19669,-0.228466 -0.3125,-0.3125 l 0.0312,-0.03125 c -1.44889,-1.100087 -3.07587,-1.952319 -4.8125,-2.46875 -0.01,-0.0032 -0.0213,0.0031 -0.0312,0 -0.0223,-0.0066 -0.0402,-0.02478 -0.0625,-0.03125 -1.61754,-0.504137 -3.29023,-0.749944 -4.96875,-0.75 -3.14684,5.4e-5 -6.22407,0.728889 -9.09375,2.09375 -0.009,0.0043 -0.0223,-0.0043 -0.0312,0 -2.82947,1.334632 -5.3489,3.22945 -7.5,5.625 -2.15054,2.395019 -3.83627,5.236597 -5.09375,8.4375 a 3.4002841,3.4002841 0 0 0 -0.0312,0.0312 c -0.71394,1.8617 -1.16193,3.84498 -1.46875,5.875 l 0,-35.40625 a 3.4002841,3.4002841 0 0 0 -3.5,-3.40625 z m -223.28125,29 0,31.46875 -1.15625,-9.125 a 3.4002841,3.4002841 0 0 0 -4.5625,-2.75 c -2.40774,0.90265 -4.56299,1.31252 -6.53125,1.3125 -0.91214,1e-5 -1.62143,-0.15033 -2.15625,-0.375 -0.008,-0.003 -0.0234,0.004 -0.0312,0 -0.53481,-0.23867 -0.94328,-0.53261 -1.375,-1.03125 -0.4314,-0.4982 -0.77164,-1.08535 -1.03125,-1.78125 -0.006,-0.0173 0.005,-0.0451 0,-0.0625 -0.005,-0.0145 -0.0261,-0.0166 -0.0312,-0.0312 -0.2394,-0.77319 -0.37502,-1.65076 -0.375,-2.71875 -2e-5,-1.08109 0.14042,-1.95833 0.375,-2.6875 0.27388,-0.79305 0.60437,-1.37894 0.96875,-1.8125 0.38471,-0.42844 0.85092,-0.76047 1.4375,-1.03125 0.58691,-0.25799 1.19688,-0.40622 2.03125,-0.40625 2.00037,3e-5 4.31746,0.4252 6.9375,1.34375 a 3.4002841,3.4002841 0 0 0 4.5,-2.78125 l 1,-7.53125 z m -97.84375,5.75 c 0.35068,0 0.40368,0.14019 0.625,0.1875 l -2.3125,0.59375 c 0.18856,-0.19796 0.35432,-0.42917 0.59375,-0.5625 0.23102,-0.12863 0.53329,-0.21873 1.09375,-0.21875 z m 446.34375,0 c 0.35068,0 0.40368,0.14019 0.625,0.1875 L 612.25,102.625 c 0.18856,-0.19796 0.35432,-0.42917 0.59375,-0.5625 0.23105,-0.12865 0.53331,-0.21873 1.09375,-0.21875 z M 578,105.0625 c 2.00039,3e-5 4.31744,0.4252 6.9375,1.34375 a 3.4002841,3.4002841 0 0 0 3.21875,-0.53125 c -0.26758,1.65709 -0.4375,3.35662 -0.4375,5.125 0,1.83818 0.1684,3.63517 0.46875,5.375 a 3.4002841,3.4002841 0 0 0 -3.5,-0.6875 c -2.40772,0.90265 -4.563,1.31252 -6.53125,1.3125 -0.91198,1e-5 -1.57009,-0.14142 -2.125,-0.375 -0.008,-0.004 -0.0231,0.004 -0.0312,0 -0.55839,-0.24925 -1.00563,-0.56855 -1.40625,-1.03125 -0.40102,-0.46312 -0.72592,-1.04179 -1,-1.78125 -0.006,-0.0173 0.005,-0.0451 0,-0.0625 -0.006,-0.0156 -0.0257,-0.0156 -0.0312,-0.0312 -0.2394,-0.77316 -0.37502,-1.65075 -0.375,-2.71875 -2e-5,-1.0811 0.14043,-1.95836 0.375,-2.6875 0.27387,-0.79303 0.60437,-1.37895 0.96875,-1.8125 0.41625,-0.46356 0.84444,-0.7719 1.40625,-1.03125 0.56347,-0.24769 1.22815,-0.40622 2.0625,-0.40625 z M 349.15625,105.25 c 0.52861,2e-5 1.00764,0.11586 1.53125,0.375 a 3.4002841,3.4002841 0 0 0 0.0625,0.0312 c 0.56634,0.26283 1.0062,0.58221 1.4375,1.0625 a 3.4002841,3.4002841 0 0 0 0.0937,0.0937 c 0.44654,0.46181 0.815,0.98772 1.125,1.71875 0.311,0.73351 0.46494,1.46872 0.5,2.25 l 0,0.40625 c -0.0369,0.8018 -0.19137,1.54583 -0.46875,2.25 -0.004,0.009 0.004,0.0219 0,0.0312 -0.27789,0.6688 -0.65155,1.22273 -1.125,1.75 -0.46168,0.51414 -0.93074,0.87449 -1.5,1.15625 -0.48648,0.24079 -1.01008,0.37501 -1.65625,0.375 -0.58685,1e-5 -1.08233,-0.0934 -1.65625,-0.34375 -0.0202,-0.01 -0.0424,-0.0213 -0.0625,-0.0312 -0.56738,-0.28136 -1.07797,-0.66685 -1.5625,-1.15625 -0.009,-0.01 -0.0223,-0.0215 -0.0312,-0.0312 -0.0109,-0.0111 -0.0204,-0.02 -0.0312,-0.0312 -0.43136,-0.47713 -0.78806,-1.04025 -1.09375,-1.78125 -0.29521,-0.73484 -0.43751,-1.45585 -0.4375,-2.375 -10e-6,-0.90459 0.11925,-1.68511 0.375,-2.34375 0.28688,-0.73885 0.67705,-1.31363 1.125,-1.8125 0.45901,-0.51118 0.95044,-0.89273 1.5625,-1.1875 a 3.4002841,3.4002841 0 0 0 0.0625,-0.0312 c 0.54991,-0.27397 1.03055,-0.37498 1.75,-0.375 z m 114.09375,0 c 0.52859,2e-5 1.00765,0.11586 1.53125,0.375 a 3.4002841,3.4002841 0 0 0 0.0625,0.0312 c 0.56633,0.26282 1.00618,0.58219 1.4375,1.0625 a 3.4002841,3.4002841 0 0 0 0.0937,0.0937 c 0.44654,0.46181 0.815,0.98772 1.125,1.71875 0.31101,0.73354 0.46494,1.46874 0.5,2.25 L 468,111 c -2e-5,0.7681 -0.11409,1.46626 -0.40625,2.21875 a 3.4002841,3.4002841 0 0 0 -0.0312,0.0625 c -0.28075,0.77118 -0.64123,1.38845 -1.0625,1.875 -0.41333,0.47735 -0.93152,0.84865 -1.59375,1.1875 -0.5523,0.28261 -1.03591,0.40626 -1.65625,0.40625 -0.58685,1e-5 -1.0823,-0.0934 -1.65625,-0.34375 -0.0213,-0.0102 -0.0415,-0.0208 -0.0625,-0.0312 -0.57361,-0.28503 -1.05155,-0.6507 -1.5,-1.125 -0.0105,-0.0111 -0.0208,-0.0201 -0.0312,-0.0312 -0.4789,-0.54003 -0.84369,-1.11736 -1.15625,-1.875 -0.2621,-0.69336 -0.40626,-1.44048 -0.40625,-2.34375 -10e-6,-0.87418 0.11658,-1.63386 0.375,-2.34375 0.29209,-0.73007 0.68172,-1.36305 1.125,-1.875 0.44371,-0.51244 0.88531,-0.84402 1.46875,-1.125 a 3.4002841,3.4002841 0 0 0 0.0625,-0.0312 c 0.52512,-0.26162 1.0618,-0.37498 1.78125,-0.375 z m 57.59375,0 c 0.52859,2e-5 1.00765,0.11586 1.53125,0.375 a 3.4002841,3.4002841 0 0 0 0.0625,0.0312 c 0.56633,0.26282 1.00618,0.58219 1.4375,1.0625 a 3.4002841,3.4002841 0 0 0 0.0937,0.0937 c 0.44654,0.46181 0.815,0.98772 1.125,1.71875 0.31101,0.73354 0.46494,1.46874 0.5,2.25 l 0,0.40625 c -0.0342,0.74216 -0.20204,1.49498 -0.5,2.25 -0.004,0.01 0.004,0.0212 0,0.0312 -0.29852,0.71975 -0.65243,1.25851 -1.09375,1.75 -0.46166,0.51412 -0.93073,0.87449 -1.5,1.15625 -0.48647,0.24078 -1.01009,0.37501 -1.65625,0.375 -0.58728,1e-5 -1.13083,-0.10199 -1.6875,-0.34375 -0.0202,-0.01 -0.0424,-0.0213 -0.0625,-0.0312 -0.56737,-0.28136 -1.07793,-0.66681 -1.5625,-1.15625 -0.009,-0.01 -0.0223,-0.0215 -0.0312,-0.0312 -0.0109,-0.0111 -0.0204,-0.02 -0.0312,-0.0312 -0.43136,-0.47713 -0.78805,-1.04023 -1.09375,-1.78125 -0.29522,-0.73487 -0.43751,-1.45587 -0.4375,-2.375 -10e-6,-0.8482 0.13036,-1.63325 0.40625,-2.34375 0.30703,-0.79072 0.67824,-1.34976 1.09375,-1.8125 0.45901,-0.51118 0.95044,-0.89273 1.5625,-1.1875 a 3.4002841,3.4002841 0 0 0 0.0625,-0.0312 c 0.52512,-0.26162 1.0618,-0.37498 1.78125,-0.375 z m -342.8125,11.59375 c -2.60087,0.94275 -5.05519,1.56251 -7.21875,1.5625 -0.82898,0 -1.48507,-0.0939 -2.09375,-0.21875 l 9.3125,-1.34375 z m 446.40625,0 c -2.62022,0.94925 -5.1103,1.56251 -7.28125,1.5625 -0.82897,0 -1.48507,-0.0939 -2.09375,-0.21875 l 9.375,-1.34375 z" />
    <path
       id="path3081"
       style="font-size:87.09738159px;font-style:normal;font-variant:normal;font-weight:normal;font-stretch:normal;line-height:125%;letter-spacing:0px;word-spacing:0px;fill:#6600ff;fill-opacity:1;stroke:none;font-family:Paytone One;-inkscape-font-specification:Paytone One"
       d="m 528.98501,110.63106 c -0.0537,-1.19677 -0.309,-2.33373 -0.76569,-3.41087 -0.45676,-1.0771 -1.06125,-2.00461 -1.81347,-2.78256 -0.72542,-0.80781 -1.5717,-1.43613 -2.53886,-1.88496 -0.96722,-0.47869 -1.9747,-0.71804 -3.02245,-0.71808 -1.18214,4e-5 -2.28365,0.25435 -3.30454,0.76296 -0.99408,0.47875 -1.86723,1.13699 -2.61946,1.97472 -0.72541,0.80787 -1.30304,1.76531 -1.73288,2.87232 -0.42987,1.10706 -0.64481,2.2889 -0.64479,3.54551 -2e-5,1.3165 0.22835,2.54322 0.68509,3.68016 0.45671,1.10705 1.0612,2.06449 1.81347,2.87231 0.77911,0.80786 1.66569,1.45114 2.65976,1.92984 0.99403,0.44881 2.04181,0.67321 3.14335,0.6732 1.12835,10e-6 2.17614,-0.23935 3.14335,-0.71808 0.96715,-0.4787 1.81344,-1.12199 2.53886,-1.92984 0.72535,-0.80781 1.30297,-1.73534 1.73287,-2.78255 0.42983,-1.07711 0.67162,-2.1991 0.72539,-3.366 l 0,-0.71808 m 0,14.81038 c -1.28962,2.992 -3.03592,5.28088 -5.23892,6.86663 -2.20305,1.58576 -4.97028,2.37864 -8.30166,2.37864 -2.68664,0 -5.25237,-0.5984 -7.69718,-1.7952 -2.44484,-1.22672 -4.59413,-2.90223 -6.44789,-5.02655 -1.85378,-2.15423 -3.33142,-4.69742 -4.43294,-7.62959 -1.10151,-2.93214 -1.65227,-6.11862 -1.65226,-9.55943 -10e-6,-3.41085 0.55075,-6.55244 1.65226,-9.42479 1.12838,-2.872277 2.61946,-5.340671 4.47323,-7.405186 1.88064,-2.094356 4.02993,-3.710032 6.4479,-4.847034 2.44481,-1.166833 4.9971,-1.750272 7.65688,-1.750318 1.37015,4.6e-5 2.71346,0.209486 4.02993,0.628319 1.34328,0.389006 2.606,1.032283 3.78814,1.929838 1.20895,0.867722 2.29703,1.974759 3.26425,3.321115 0.99401,1.346438 1.81343,2.962115 2.45826,4.847033 l 0,-10.726305 17.32872,0 0,46.720018 -17.32872,0 0,-8.52719 m 57.06389,-22.26045 c -2.90159,-1.01725 -5.58821,-1.52588 -8.05988,-1.52592 -1.26274,4e-5 -2.40455,0.22443 -3.42544,0.6732 -0.99408,0.44883 -1.85379,1.07715 -2.57916,1.88496 -0.69855,0.80787 -1.2493,1.79523 -1.65227,2.96208 -0.37615,1.13698 -0.56421,2.40858 -0.56419,3.81479 -2e-5,1.40627 0.18804,2.69282 0.56419,3.85968 0.40297,1.13697 0.96716,2.12433 1.69257,2.96207 0.72537,0.83778 1.59852,1.48106 2.61946,1.92983 1.04776,0.44883 2.21643,0.67322 3.50605,0.6732 2.44479,2e-5 5.02395,-0.50862 7.73747,-1.52591 l 1.61197,12.83567 c -2.06874,1.1968 -4.09713,1.98967 -6.0852,2.37863 -1.96126,0.38896 -4.09712,0.58344 -6.4076,0.58344 -3.25084,0 -6.24641,-0.56848 -8.98675,-1.70544 -2.74037,-1.13695 -5.1046,-2.73768 -7.09269,-4.80215 -1.9881,-2.06447 -3.54635,-4.54782 -4.67472,-7.45007 -1.10152,-2.93214 -1.65228,-6.17845 -1.65228,-9.73895 0,-3.56044 0.60449,-6.7918 1.81347,-9.69407 1.20898,-2.932117 2.83438,-5.430431 4.87622,-7.494946 2.0687,-2.094355 4.45978,-3.710032 7.17329,-4.847034 2.71347,-1.136913 5.56128,-1.705392 8.54346,-1.705438 1.31642,4.6e-5 2.49854,0.05989 3.54635,0.17952 1.07462,0.08981 2.09553,0.284286 3.06275,0.583439 0.96714,0.269326 1.93434,0.643325 2.90155,1.121999 0.96715,0.478763 2.01493,1.092122 3.14335,1.840078 l -1.61197,12.207342 m 34.17386,0.98736 c -0.94034,-3.82972 -3.03591,-5.744597 -6.2867,-5.744632 -1.02094,3.5e-5 -1.93439,0.224434 -2.74036,0.673199 -0.806,0.448834 -1.49108,1.077153 -2.05525,1.884953 -0.53736,0.77796 -0.95378,1.72043 -1.24929,2.82744 -0.29554,1.07715 -0.45675,2.24403 -0.48359,3.50063 l 12.81519,-3.14159 M 617.16,121.80616 c 3.76124,10e-6 7.81804,-1.0771 12.1704,-3.23134 l 2.01497,12.34197 c -4.99715,2.51328 -10.61219,3.76992 -16.84513,3.76992 -3.46576,0 -6.63597,-0.58344 -9.51064,-1.75032 -2.84784,-1.1968 -5.30609,-2.84239 -7.37478,-4.93679 -2.04184,-2.12432 -3.64038,-4.63758 -4.79562,-7.53983 -1.12839,-2.90222 -1.69258,-6.05877 -1.69258,-9.46967 0,-3.59037 0.59106,-6.83668 1.77317,-9.73895 1.20898,-2.932117 2.84782,-5.430431 4.91652,-7.494946 2.0687,-2.094355 4.48665,-3.695072 7.25389,-4.802154 2.7672,-1.136913 5.72248,-1.705392 8.86586,-1.705438 3.17019,4.6e-5 5.95084,0.598445 8.34196,1.795198 2.39106,1.166922 4.37916,2.782598 5.96431,4.847034 1.61192,2.034595 2.80748,4.428189 3.58664,7.180786 0.80594,2.72275 1.20893,5.63994 1.20898,8.75159 -5e-5,0.4189 -0.0135,0.82282 -0.0403,1.21176 -0.0269,0.38899 -0.0672,0.76299 -0.12089,1.122 l -24.7438,3.59039 c 0.64477,2.15426 1.71941,3.71009 3.22395,4.66751 1.50448,0.92754 3.43885,1.39129 5.8031,1.39128"
       inkscape:connector-curvature="0" />
    <path
       id="path3010"
       style="font-size:87.09738159px;font-style:normal;font-variant:normal;font-weight:normal;font-stretch:normal;line-height:125%;letter-spacing:0px;word-spacing:0px;fill:#ffffff;fill-opacity:1;stroke:none;font-family:Paytone One;-inkscape-font-specification:Paytone One"
       d="m 108.01803,98.692997 c 1.12833,-3.799796 2.94179,-6.657149 5.44041,-8.572069 2.4985,-1.914831 5.73588,-2.87227 9.71214,-2.872316 2.2567,4.6e-5 4.33883,0.583485 6.2464,1.750318 1.90743,1.166922 3.55971,2.797558 4.95682,4.891914 1.39697,2.094435 2.48505,4.592748 3.26425,7.494946 0.77904,2.90227 1.1686,6.1037 1.16868,9.60431 l 0,22.97853 -17.40932,0 0,-22.97853 c -6e-5,-1.28653 -0.13439,-2.46837 -0.40299,-3.54551 -0.24186,-1.10701 -0.60456,-2.06445 -1.08809,-2.87232 -0.48365,-0.80781 -1.0747,-1.43613 -1.77316,-1.88496 -0.69859,-0.44877 -1.49114,-0.67317 -2.37767,-0.6732 -1.1553,3e-5 -2.14935,0.29923 -2.98215,0.8976 -0.83291,0.56851 -1.51799,1.30155 -2.05527,2.19912 -0.53737,0.86771 -0.94036,1.8401 -1.20898,2.91719 -0.24184,1.04723 -0.36274,2.03458 -0.36269,2.96208 l 0,22.97853 -17.248122,0 0,-22.97853 c -3.4e-5,-1.25661 -0.134366,-2.42349 -0.402994,-3.50063 -0.24183,-1.10701 -0.617956,-2.06445 -1.128382,-2.87232 -0.483624,-0.80781 -1.088113,-1.43613 -1.813471,-1.88496 -0.725418,-0.47869 -1.544837,-0.71805 -2.45826,-0.71808 -0.994077,3e-5 -1.894095,0.22443 -2.700056,0.6732 -0.779145,0.44883 -1.4508,1.07715 -2.014967,1.88496 -0.564214,0.77795 -1.007506,1.69051 -1.329879,2.73767 -0.29555,1.04723 -0.456748,2.15427 -0.483592,3.32112 l 0,23.33757 -17.409319,0 0,-45.373619 17.409319,0 0,9.379906 c 1.531353,-3.799794 3.465719,-6.537468 5.803106,-8.213028 2.364199,-1.675472 5.131418,-2.513231 8.301666,-2.513277 1.531342,4.6e-5 3.008984,0.224446 4.432926,0.673199 1.423875,0.418925 2.753745,1.092123 3.989645,2.019597 1.26266,0.927562 2.39104,2.12436 3.38514,3.590396 1.02087,1.436197 1.86715,3.156593 2.53886,5.161193 m 65.84914,5.475353 c -0.94035,-3.82972 -3.03591,-5.744597 -6.28669,-5.744632 -1.02095,3.5e-5 -1.9344,0.224434 -2.74036,0.673199 -0.80601,0.448834 -1.4911,1.077153 -2.05527,1.884953 -0.53735,0.77796 -0.95378,1.72043 -1.24928,2.82744 -0.29555,1.07715 -0.45674,2.24403 -0.48359,3.50063 l 12.81519,-3.14159 m -3.06276,17.63781 c 3.76125,10e-6 7.81803,-1.0771 12.17041,-3.23134 l 2.01496,12.34197 c -4.99715,2.51328 -10.61219,3.76992 -16.84512,3.76992 -3.46577,0 -6.63599,-0.58344 -9.51065,-1.75032 -2.84783,-1.1968 -5.3061,-2.84239 -7.37478,-4.93679 -2.04184,-2.12432 -3.64038,-4.63758 -4.79563,-7.53983 -1.12838,-2.90222 -1.69258,-6.05877 -1.69257,-9.46967 -1e-5,-3.59037 0.59106,-6.83668 1.77317,-9.73895 1.20898,-2.932117 2.84782,-5.430431 4.91653,-7.494946 2.06868,-2.094355 4.48664,-3.695072 7.25387,-4.802154 2.76721,-1.136913 5.72249,-1.705392 8.86587,-1.705438 3.17018,4.6e-5 5.95083,0.598445 8.34196,1.795198 2.39106,1.166922 4.37915,2.782598 5.9643,4.847034 1.61193,2.034595 2.80748,4.428189 3.58665,7.180786 0.80594,2.72275 1.20893,5.63994 1.20898,8.75159 -5e-5,0.4189 -0.0135,0.82282 -0.0403,1.21176 -0.0269,0.38899 -0.0672,0.76299 -0.1209,1.122 l -24.7438,3.59039 c 0.64478,2.15426 1.71943,3.71009 3.22395,4.66751 1.50449,0.92754 3.43885,1.39129 5.80311,1.39128 m 21.92283,-33.211149 17.40932,0 0,9.379906 c 1.31642,-3.710034 3.06272,-6.417788 5.23891,-8.123269 2.203,-1.735311 4.72843,-2.60299 7.57628,-2.603036 l 2.41796,15.034778 c -5.23895,3e-5 -9.09425,0.62835 -11.56591,1.88496 -2.44485,1.22675 -3.66727,3.20146 -3.66724,5.92415 l 0,23.87613 -17.40932,0 0,-45.373619 m 68.3477,14.585979 c -2.90158,-1.01725 -5.5882,-1.52588 -8.05986,-1.52592 -1.26275,4e-5 -2.40456,0.22443 -3.42546,0.6732 -0.99406,0.44883 -1.85379,1.07715 -2.57915,1.88496 -0.69854,0.80787 -1.2493,1.79523 -1.65228,2.96208 -0.37614,1.13698 -0.5642,2.40858 -0.56418,3.81479 -2e-5,1.40627 0.18804,2.69282 0.56418,3.85968 0.40298,1.13697 0.96717,2.12433 1.69258,2.96207 0.72536,0.83778 1.59852,1.48106 2.61946,1.92983 1.04775,0.44883 2.21643,0.67322 3.50604,0.6732 2.4448,2e-5 5.02395,-0.50862 7.73748,-1.52591 l 1.61197,12.83567 c -2.06873,1.1968 -4.09714,1.98967 -6.0852,2.37863 -1.96127,0.38896 -4.09713,0.58344 -6.4076,0.58344 -3.25083,0 -6.24642,-0.56848 -8.98676,-1.70544 -2.74036,-1.13695 -5.10459,-2.73768 -7.09268,-4.80215 -1.9881,-2.06447 -3.54635,-4.54782 -4.67473,-7.45007 -1.10151,-2.93214 -1.65227,-6.17845 -1.65227,-9.73895 0,-3.56044 0.60449,-6.7918 1.81347,-9.69407 1.20898,-2.932117 2.83438,-5.430431 4.87623,-7.494946 2.06868,-2.094355 4.45978,-3.710032 7.17328,-4.847034 2.71347,-1.136913 5.56129,-1.705392 8.54346,-1.705438 1.31642,4.6e-5 2.49853,0.05989 3.54634,0.17952 1.07463,0.08981 2.09554,0.284286 3.06276,0.583439 0.96715,0.269326 1.93433,0.643325 2.90154,1.121999 0.96716,0.478763 2.01494,1.092122 3.14336,1.840078 l -1.61198,12.207342 m 7.77778,-29.80028 17.40932,-2.872316 0,27.646044 c 1.39702,-3.799795 3.23736,-6.567389 5.52102,-8.30279 2.31046,-1.735311 5.01051,-2.60299 8.10016,-2.603036 2.49853,4.6e-5 4.82245,0.568525 6.97179,1.705438 2.14925,1.107082 4.01645,2.692839 5.60161,4.757274 1.61192,2.034595 2.87463,4.488029 3.78813,7.360306 0.91341,2.87235 1.37013,6.05883 1.37019,9.55943 l 0,23.33757 -17.32872,0 0,-22.97853 c -4e-5,-1.16685 -0.1478,-2.30381 -0.4433,-3.41088 -0.29556,-1.10701 -0.69856,-2.0794 -1.20898,-2.91719 -0.51049,-0.86765 -1.12841,-1.55581 -1.85377,-2.06448 -0.69855,-0.50861 -1.46424,-0.76292 -2.29707,-0.76296 -1.18213,4e-5 -2.28365,0.26931 -3.30453,0.80784 -0.99408,0.50867 -1.8538,1.21179 -2.57917,2.10936 -0.72541,0.89762 -1.30303,1.94482 -1.73287,3.1416 -0.40301,1.1669 -0.60451,2.40858 -0.60449,3.72503 l 0,22.35021 -17.40932,0 0,-60.58792 m 88.45707,37.25035 c -0.0537,-1.19677 -0.30899,-2.33373 -0.76569,-3.41087 -0.45676,-1.0771 -1.06125,-2.00461 -1.81347,-2.78256 -0.72542,-0.80781 -1.57171,-1.43613 -2.53885,-1.88496 -0.96722,-0.47869 -1.9747,-0.71804 -3.02246,-0.71808 -1.18214,4e-5 -2.28365,0.25435 -3.30454,0.76296 -0.99408,0.47875 -1.86723,1.13699 -2.61946,1.97472 -0.72541,0.80787 -1.30304,1.76531 -1.73287,2.87232 -0.42988,1.10706 -0.64481,2.2889 -0.64479,3.54551 -2e-5,1.3165 0.22834,2.54322 0.68509,3.68016 0.4567,1.10705 1.06119,2.06449 1.81347,2.87231 0.77909,0.80786 1.66568,1.45114 2.65976,1.92984 0.99402,0.44881 2.0418,0.67321 3.14334,0.6732 1.12836,10e-6 2.17614,-0.23935 3.14335,-0.71808 0.96716,-0.4787 1.81344,-1.12199 2.53886,-1.92984 0.72535,-0.80781 1.30298,-1.73534 1.73287,-2.78255 0.42982,-1.07711 0.67162,-2.1991 0.72539,-3.366 l 0,-0.71808 m 0,14.81038 c -1.28961,2.992 -3.03592,5.28088 -5.23892,6.86663 -2.20305,1.58576 -4.97027,2.37864 -8.30166,2.37864 -2.68664,0 -5.25237,-0.5984 -7.69717,-1.7952 -2.44485,-1.22672 -4.59414,-2.90223 -6.44791,-5.02655 -1.85377,-2.15423 -3.33141,-4.69742 -4.43292,-7.62959 -1.10152,-2.93214 -1.65228,-6.11862 -1.65228,-9.55943 0,-3.41085 0.55076,-6.55244 1.65228,-9.42479 1.12838,-2.872277 2.61945,-5.340671 4.47323,-7.405186 1.88062,-2.094356 4.02992,-3.710032 6.4479,-4.847034 2.4448,-1.166833 4.99709,-1.750272 7.65687,-1.750318 1.37016,4.6e-5 2.71347,0.209486 4.02993,0.628319 1.34329,0.389006 2.606,1.032283 3.78814,1.929838 1.20895,0.867722 2.29704,1.974759 3.26425,3.321115 0.99401,1.346438 1.81344,2.962115 2.45826,4.847033 l 0,-10.726305 17.32872,0 0,46.720018 -17.32872,0 0,-8.52719 m 25.63036,-36.846429 16.60333,0 0,9.379906 c 1.61196,-3.620274 3.68065,-6.313068 6.20611,-8.078389 2.55226,-1.765231 5.53441,-2.64787 8.94645,-2.647916 2.74032,4.6e-5 5.15828,0.568525 7.25388,1.705438 2.09552,1.137002 3.85526,2.752679 5.27922,4.847034 1.45073,2.064515 2.5388,4.562829 3.26424,7.494946 0.7522,2.90227 1.12833,6.13363 1.12839,9.69407 l 0,22.97853 -17.32872,0 0,-24.86349 c -4e-5,-1.19677 -0.10751,-2.30381 -0.3224,-3.32111 -0.1881,-1.01725 -0.51049,-1.88493 -0.96718,-2.60304 -0.4299,-0.74797 -0.98065,-1.31645 -1.65228,-1.70544 -0.67168,-0.41884 -1.49111,-0.62828 -2.45826,-0.62832 -1.18213,4e-5 -2.27022,0.32916 -3.26425,0.98736 -0.99407,0.62835 -1.86722,1.40627 -2.61945,2.33376 -0.72542,0.92755 -1.31647,1.89994 -1.77317,2.91719 -0.45675,0.98739 -0.75228,1.84011 -0.88659,2.55816 l 0,24.32493 -17.40932,0 0,-45.373619 m 88.45708,22.036049 c -0.0537,-1.19677 -0.309,-2.33373 -0.76569,-3.41087 -0.45676,-1.0771 -1.06125,-2.00461 -1.81347,-2.78256 -0.72542,-0.80781 -1.5717,-1.43613 -2.53886,-1.88496 -0.96722,-0.47869 -1.9747,-0.71804 -3.02245,-0.71808 -1.18214,4e-5 -2.28365,0.25435 -3.30454,0.76296 -0.99408,0.47875 -1.85379,1.13699 -2.57916,1.97472 -0.72541,0.83779 -1.30304,1.81019 -1.73288,2.9172 -0.40301,1.10706 -0.60451,2.27394 -0.60449,3.50063 -2e-5,1.3165 0.21492,2.52826 0.64479,3.63528 0.45671,1.10705 1.0612,2.07945 1.81347,2.91719 0.75223,0.80786 1.62539,1.45114 2.61946,1.92984 0.99403,0.44881 2.04181,0.67321 3.14335,0.6732 1.15522,10e-6 2.22987,-0.2543 3.22395,-0.76296 0.99402,-0.50862 1.85373,-1.18182 2.57916,-2.0196 0.72535,-0.83774 1.28954,-1.81014 1.69257,-2.91719 0.42982,-1.10703 0.64476,-2.25894 0.64479,-3.45576 l 0,-0.35904 M 457.85666,87.248612 c 3.11646,4.6e-5 5.80308,0.718125 8.05987,2.154237 2.25673,1.436201 4.08364,3.814836 5.48071,7.135911 l 0,-23.15805 17.40932,-2.872316 0,63.460236 -17.40932,0 0,-8.52719 c -1.28962,3.08177 -3.04935,5.40055 -5.27921,6.9564 -2.22993,1.52591 -5.01058,2.28887 -8.34197,2.28887 -2.87471,0 -5.53446,-0.64328 -7.97927,-1.92984 -2.44484,-1.31648 -4.56727,-3.06679 -6.3673,-5.25095 -1.77318,-2.18415 -3.17022,-4.69742 -4.19113,-7.53984 -1.02092,-2.87229 -1.53138,-5.86428 -1.53138,-8.97598 0,-3.35101 0.53733,-6.47764 1.61197,-9.37991 1.10152,-2.902198 2.57916,-5.415471 4.43294,-7.539827 1.85375,-2.124275 3.98962,-3.784831 6.40759,-4.981673 2.44482,-1.226673 5.01054,-1.840032 7.69718,-1.840078"
       inkscape:connector-curvature="0" />
  </g>
</svg>
